<svg width="34" height="34" viewBox="0 0 33 34" fill="none" xmlns="http://www.w3.org/2000/svg">
<path d="M22.725 12.5L20 5H15V7.5H18.25L20.075 12.5H14.0625L13.6125 11.25H15V8.75H8.75V11.25H10.9375L13.2125 17.5H12.375C11.825 14.7125 9.4875 12.65 6.5625 12.5125C3.0625 12.3375 0 15.25 0 18.75C0 22.25 2.75 25 6.25 25C9.325 25 11.8125 22.8875 12.375 20H17.625C18.175 22.7875 20.5125 24.85 23.4375 24.9875C26.9375 25.15 30 22.25 30 18.7375C30 15.2375 27.25 12.4875 23.75 12.4875H22.725V12.5ZM9.775 20C9.275 21.4625 7.9125 22.5 6.25 22.5C4.15 22.5 2.5 20.85 2.5 18.75C2.5 16.65 4.15 15 6.25 15C7.9125 15 9.275 16.0375 9.775 17.5H6.25V20H9.775ZM17.625 17.5H15.875L14.9625 15H18.75C18.2 15.725 17.8 16.5625 17.625 17.5ZM23.75 22.5C21.65 22.5 20 20.85 20 18.75C20 17.5875 20.5125 16.5875 21.3125 15.9L22.5125 19.2L24.8625 18.35L23.65 15.0125C23.6875 15.0125 23.725 15 23.7625 15C25.8625 15 27.5125 16.65 27.5125 18.75C27.5125 20.85 25.85 22.5 23.75 22.5Z" fill="none"/>
</svg>
