<svg width="33" height="33" viewBox="0 0 24 28" fill="none" xmlns="http://www.w3.org/2000/svg">
<path d="M22.5 0.000976562H1.5C1.10218 0.000976562 0.720644 0.159012 0.43934 0.440316C0.158035 0.721621 0 1.10315 0 1.50098V24.001C3.08588e-05 24.352 0.0924578 24.6969 0.267993 25.0009C0.443528 25.3049 0.695987 25.5573 1 25.7328V28.001H5.5V26.001H18.5V28.001H23V25.7328C23.304 25.5573 23.5565 25.3049 23.732 25.0009C23.9075 24.6969 24 24.352 24 24.001V1.50098C24 1.10315 23.842 0.721621 23.5607 0.440316C23.2794 0.159012 22.8978 0.000976563 22.5 0.000976562V0.000976562ZM6.98875 21.2178C6.94774 21.5926 6.80165 21.9481 6.56732 22.2435C6.33299 22.5388 6.01996 22.7618 5.66433 22.887C5.30871 23.0121 4.92496 23.0341 4.55735 22.9506C4.18973 22.867 3.85322 22.6812 3.5866 22.4147C3.31999 22.1482 3.13414 21.8117 3.05048 21.4441C2.96683 21.0765 2.98876 20.6928 3.11377 20.3371C3.23878 19.9814 3.46176 19.6684 3.75701 19.4339C4.05226 19.1995 4.40776 19.0533 4.7825 19.0122C5.07992 18.9806 5.38063 19.016 5.66262 19.1156C5.94462 19.2153 6.20075 19.3768 6.41227 19.5882C6.62378 19.7997 6.78533 20.0558 6.88508 20.3378C6.98482 20.6197 7.02025 20.9204 6.98875 21.2178V21.2178ZM11 16.001H2V6.00098H11V16.001ZM12 4.00098H2.02875L2 2.00098H22L21.9712 4.00098H12ZM13 6.00098H22V16.001H13V6.00098ZM17.0112 20.7841C17.0523 20.4093 17.1983 20.0538 17.4327 19.7585C17.667 19.4632 17.98 19.2401 18.3357 19.115C18.6913 18.9899 19.075 18.9678 19.4427 19.0514C19.8103 19.1349 20.1468 19.3207 20.4134 19.5872C20.68 19.8538 20.8659 20.1902 20.9495 20.5578C21.0332 20.9254 21.0112 21.3092 20.8862 21.6648C20.7612 22.0205 20.5382 22.3336 20.243 22.568C19.9477 22.8024 19.5922 22.9486 19.2175 22.9897C18.9201 23.0213 18.6194 22.986 18.3374 22.8863C18.0554 22.7866 17.7992 22.6252 17.5877 22.4137C17.3762 22.2022 17.2147 21.9462 17.1149 21.6642C17.0152 21.3822 16.9798 21.0815 17.0112 20.7841Z" fill="#044B7F"/>
</svg>
