<svg width="33" height="33" viewBox="0 0 30 30" fill="none" xmlns="http://www.w3.org/2000/svg">
<path d="M22.1693 17.0125C22.1693 17.8711 21.5123 18.525 20.7526 18.525C19.9929 18.525 19.3359 17.8711 19.3359 17.0125C19.3359 16.1539 19.9929 15.5 20.7526 15.5C21.5123 15.5 22.1693 16.1539 22.1693 17.0125Z" fill="none" stroke="none"/>
<path d="M10.6693 17.0125C10.6693 17.8711 10.0123 18.525 9.2526 18.525C8.49291 18.525 7.83594 17.8711 7.83594 17.0125C7.83594 16.1539 8.49291 15.5 9.2526 15.5C10.0123 15.5 10.6693 16.1539 10.6693 17.0125Z" fill="none" stroke="none"/>
<path d="M23.3664 5.7753L23.3675 5.77868L26 13.7388V24.3916C26 24.8766 25.6262 25.2333 25.2222 25.2333H23.9444C23.5405 25.2333 23.1667 24.8766 23.1667 24.3916V23.0499V22.5499H22.6667H7.33333H6.83333V23.0499V24.3916C6.83333 24.8766 6.45948 25.2333 6.05556 25.2333H4.77778C4.37385 25.2333 4 24.8766 4 24.3916V13.7388L6.63131 5.7822C6.6315 5.78165 6.63169 5.78109 6.63188 5.78054C6.83967 5.16963 7.36723 4.7666 7.97222 4.7666H22.0278C22.6382 4.7666 23.1725 5.17463 23.3664 5.7753ZM8.41945 6.44993H8.05798L7.94465 6.79318L6.61576 10.8182L6.39893 11.4749H7.09055H22.8967H23.5883L23.3715 10.8182L22.0426 6.79318L21.9292 6.44993H21.5678H8.41945ZM23.9444 20.8666H24.4444V20.3666V14.1144V14.0391L24.4223 13.9672L24.2817 13.511L24.173 13.1583H23.8039H6.20889H5.84947L5.73495 13.499L5.58161 13.9551L5.55556 14.0326V14.1144V20.3666V20.8666H6.05556H23.9444Z" fill="none" stroke="none"/>
</svg>
