<svg width="34" height="34" viewBox="0 0 30 20" fill="none" xmlns="http://www.w3.org/2000/svg">
<path d="M28.8787 7.88033L22.4387 1.44033C21.9454 0.946992 21.2654 0.666992 20.5587 0.666992H2.9987C1.53203 0.666992 0.332031 1.85366 0.332031 3.33366V12.667C0.332031 14.1337 1.53203 15.3337 2.9987 15.3337C2.9987 17.547 4.78536 19.3337 6.9987 19.3337C9.21203 19.3337 10.9987 17.547 10.9987 15.3337H18.9987C18.9987 17.547 20.7854 19.3337 22.9987 19.3337C25.212 19.3337 26.9987 17.547 26.9987 15.3337C28.4654 15.3337 29.6654 14.1337 29.6654 12.667V9.77366C29.6654 9.06699 29.3854 8.38699 28.8787 7.88033ZM2.9987 7.33366V4.66699C2.9987 3.93366 3.5987 3.33366 4.33203 3.33366H8.33203V8.66699H4.33203C3.5987 8.66699 2.9987 8.06699 2.9987 7.33366ZM6.9987 17.0003C6.0787 17.0003 5.33203 16.2537 5.33203 15.3337C5.33203 14.4137 6.0787 13.667 6.9987 13.667C7.9187 13.667 8.66536 14.4137 8.66536 15.3337C8.66536 16.2537 7.9187 17.0003 6.9987 17.0003ZM16.332 8.66699H10.9987V3.33366H16.332V8.66699ZM22.9987 17.0003C22.0787 17.0003 21.332 16.2537 21.332 15.3337C21.332 14.4137 22.0787 13.667 22.9987 13.667C23.9187 13.667 24.6654 14.4137 24.6654 15.3337C24.6654 16.2537 23.9187 17.0003 22.9987 17.0003ZM18.9987 8.66699V3.33366H20.332L25.6654 8.66699H18.9987Z" fill="currentColor"/>
</svg>
