<svg width="35" height="35" viewBox="0 0 34 31" fill="none" xmlns="http://www.w3.org/2000/svg">
<path d="M6.06578 13.9286C5.99703 13.9286 5.91453 13.9286 5.83203 13.9286H6.06578ZM18.7708 4.5H12.707V7.64286H17.6433L20.3933 10.7857H15.457L9.95703 13.9286L7.20703 10.7857H0.332031V13.9286H5.83203C2.79328 13.9286 0.332031 16.7414 0.332031 20.2143C0.332031 23.6871 2.79328 26.5 5.83203 26.5C8.87078 26.5 11.332 23.6871 11.332 20.2143L14.082 23.3571H18.207L23.0058 13.7714L24.3945 15.3586C23.1433 16.5057 22.332 18.25 22.332 20.2143C22.332 23.6871 24.7933 26.5 27.832 26.5C30.8708 26.5 33.332 23.6871 33.332 20.2143C33.332 16.7414 30.8708 13.9286 27.832 13.9286C27.5845 13.9286 27.337 13.9757 27.1033 14.0071L24.2708 10.7857H27.832V6.07143L22.717 8.99429L18.7708 4.5ZM27.832 23.3571C26.3195 23.3571 25.082 21.9429 25.082 20.2143C25.082 18.4857 26.3195 17.0714 27.832 17.0714C29.3445 17.0714 30.582 18.4857 30.582 20.2143C30.582 21.9429 29.3445 23.3571 27.832 23.3571ZM5.83203 23.3571C4.31953 23.3571 3.08203 21.9429 3.08203 20.2143C3.08203 18.4857 4.31953 17.0714 5.83203 17.0714C7.34453 17.0714 8.58203 18.4857 8.58203 20.2143C8.58203 21.9429 7.34453 23.3571 5.83203 23.3571Z" fill="#044B7F"/>
</svg>
