<svg width="33" height="33" viewBox="0 0 20 20" fill="none" xmlns="http://www.w3.org/2000/svg">
<path fill-rule="evenodd" clip-rule="evenodd" d="M7.84643 0.591797C7.1056 0.591797 6.50084 1.20761 6.50084 1.9665V3.34121H5.57101C4.84152 3.34121 4.19518 3.82265 3.97217 4.53417L2.40357 8.94251L1.33768 8.30639C1.29988 8.28416 1.25452 8.27739 1.21295 8.28899C1.16759 8.30059 1.13357 8.3296 1.11089 8.36826L0.611964 9.25573C0.566607 9.33791 0.593066 9.44038 0.672441 9.48775L1.94244 10.2437L1.63628 11.1032C1.60982 11.1718 1.59848 11.2453 1.59848 11.3188V18.7984C1.59848 19.1358 1.84795 19.4085 2.15033 19.4085H3.57152C3.82854 19.4085 4.05533 19.2093 4.10825 18.9299L4.27078 18.1198H15.7272L15.8898 18.9299C15.9465 19.2093 16.1695 19.4085 16.4265 19.4085H17.8439C18.0518 19.4085 18.2332 19.2828 18.3277 19.0962C18.3731 19.0082 18.3995 18.9067 18.3995 18.7984V11.3188C18.3995 11.2453 18.3844 11.1718 18.3617 11.1032L18.0556 10.2437L19.3218 9.48775C19.3596 9.46552 19.386 9.42878 19.4012 9.38528C19.4125 9.34177 19.4049 9.29537 19.386 9.25573L18.8871 8.36633C18.8644 8.32766 18.8266 8.29866 18.7851 8.28706C18.7435 8.27546 18.6981 8.28126 18.6566 8.30446L17.5944 8.94058L15.9502 4.29538C15.8633 4.01793 15.6932 3.77624 15.4627 3.60513C15.2321 3.43402 14.9562 3.34121 14.6689 3.34121H13.4896V1.9665C13.4896 1.20761 12.8886 0.591797 12.1478 0.591797H7.84643ZM7.90313 1.47637V1.76252H8.37182V3.06665H8.68554V1.76252H9.14667V1.47637H7.90313ZM9.32054 3.04829C9.37724 3.07536 9.44149 3.08889 9.50953 3.08889C9.5889 3.08889 9.65694 3.07246 9.71363 3.04152C9.77033 3.00962 9.81569 2.95258 9.85349 2.87041L9.87994 3.06665H10.1445V2.26716C10.1445 2.19272 10.1294 2.12892 10.0954 2.07574C10.0652 2.02161 10.016 1.98004 9.94798 1.95104C9.87994 1.92203 9.78545 1.90753 9.67206 1.90753C9.58134 1.90753 9.49819 1.9201 9.42637 1.94717C9.35078 1.9723 9.29408 2.01194 9.2525 2.06608C9.21093 2.11828 9.18825 2.18595 9.18447 2.26813H9.44527C9.46039 2.21496 9.48685 2.17822 9.52843 2.15695C9.57 2.13568 9.61158 2.12505 9.66072 2.12408C9.72119 2.12312 9.76655 2.13762 9.79679 2.16565C9.82703 2.19369 9.84215 2.23332 9.84215 2.28553V2.35417L9.70229 2.3561C9.50575 2.35803 9.36212 2.39187 9.2714 2.45761C9.18069 2.52141 9.13533 2.61615 9.13533 2.74086C9.13533 2.7805 9.13911 2.81627 9.15045 2.84914L9.18447 2.93034L9.2525 3.00575L9.32054 3.04829ZM9.65316 2.87427L9.61536 2.87717C9.56622 2.87717 9.52087 2.86267 9.48685 2.83367C9.44905 2.8037 9.43393 2.76213 9.43393 2.70896C9.43393 2.66256 9.44527 2.62679 9.47173 2.59875C9.50197 2.57168 9.53598 2.55235 9.58134 2.54075C9.6267 2.52818 9.67584 2.52141 9.72875 2.52141L9.84215 2.51851V2.68673C9.84215 2.71089 9.83459 2.73506 9.82325 2.7573L9.77033 2.81917L9.69851 2.86171L9.65316 2.87427ZM11.1688 3.06665H11.4939L11.0668 2.47404L11.4637 1.92977H11.1348L10.9043 2.24782L10.6699 1.92977H10.3449L10.7342 2.47404L10.3071 3.06665H10.6359L10.9005 2.69639L11.1688 3.06665ZM11.9815 3.06665V1.92977H11.6829V3.06665H11.9815ZM11.9853 1.76639V1.47733H11.6791V1.76639H11.9853ZM4.14226 13.406C4.02131 13.2571 3.9495 13.0657 3.9495 12.8568C3.9495 12.3822 4.32747 11.9974 4.79238 11.9974C5.25351 11.9974 5.63149 12.3822 5.63149 12.8568C5.63149 13.3315 5.25351 13.7163 4.79238 13.7163C4.53158 13.7163 4.29723 13.5954 4.14226 13.406ZM12.8697 15.4651C12.8433 15.4864 12.8093 15.4989 12.7715 15.4989H7.22655C7.13584 15.4989 7.06024 15.4216 7.06024 15.3269V14.451H12.9378V15.3269C12.9378 15.3839 12.9113 15.4342 12.8697 15.4651ZM15.2056 13.7163C14.7407 13.7163 14.3665 13.3315 14.3665 12.8568C14.3665 12.3822 14.7407 11.9974 15.2056 11.9974C15.6705 11.9974 16.0447 12.3822 16.0447 12.8568C16.0447 13.3315 15.6705 13.7163 15.2056 13.7163ZM3.86634 9.35434L5.39336 5.06008L5.4047 5.03204L5.41226 5.004C5.43494 4.93343 5.4992 4.88606 5.57101 4.88606H14.5517L16.1355 9.35434H3.86634Z" fill="#044B7F"/>
</svg>
