<svg width="33" height="33" viewBox="0 0 32 32" fill="none" xmlns="http://www.w3.org/2000/svg">
<path d="M24 2.00195H20C20 1.73674 19.8946 1.48238 19.7071 1.29485C19.5196 1.10731 19.2652 1.00195 19 1.00195H13C12.7348 1.00195 12.4804 1.10731 12.2929 1.29485C12.1054 1.48238 12 1.73674 12 2.00195H8C7 2.00195 6 3.00195 6 4.00195V22.002C6 23.497 16 27.002 16 27.002C16 27.002 26 23.4557 26 22.002V4.00195C26 3.00195 25 2.00195 24 2.00195ZM16 22.002C15.4067 22.002 14.8266 21.826 14.3333 21.4964C13.8399 21.1667 13.4554 20.6982 13.2284 20.15C13.0013 19.6018 12.9419 18.9986 13.0576 18.4167C13.1734 17.8347 13.4591 17.3002 13.8787 16.8806C14.2982 16.4611 14.8328 16.1754 15.4147 16.0596C15.9967 15.9438 16.5999 16.0032 17.148 16.2303C17.6962 16.4574 18.1648 16.8419 18.4944 17.3352C18.824 17.8286 19 18.4086 19 19.002C19 19.7976 18.6839 20.5607 18.1213 21.1233C17.5587 21.6859 16.7956 22.002 16 22.002ZM23 12.502C23 12.6346 22.9473 12.7617 22.8535 12.8555C22.7598 12.9493 22.6326 13.002 22.5 13.002H9.5C9.36739 13.002 9.24021 12.9493 9.14645 12.8555C9.05268 12.7617 9 12.6346 9 12.502V7.50195C9 7.36934 9.05268 7.24217 9.14645 7.1484C9.24021 7.05463 9.36739 7.00195 9.5 7.00195H22.5C22.6326 7.00195 22.7598 7.05463 22.8535 7.1484C22.9473 7.24217 23 7.36934 23 7.50195V12.502Z" fill="#044B7F"/>
<path d="M19.6247 26.999L20.5822 27.999H11.4109L12.3747 26.999L10.3747 26.1865L5.58594 30.999H8.41094L9.41094 29.999H22.5822L23.5822 30.999H26.4134L21.6409 26.1396L19.6247 26.999Z" fill="#044B7F"/>
</svg>
