<svg width="35" height="35" viewBox="0 0 33 34" fill="none" xmlns="http://www.w3.org/2000/svg">
<path d="M19.8656 29.9909L16.3394 22.8659L13.5506 19.3034C13.138 18.6049 12.9209 17.8083 12.9219 16.9971V8.97461H13.8938C14.5568 8.97461 15.1927 9.238 15.6615 9.70684C16.1304 10.1757 16.3938 10.8116 16.3938 11.4746V22.8627" fill="currentColor"/>
<path d="M19.8656 29.9909L16.3394 22.8659L13.5506 19.3034C13.138 18.6049 12.9209 17.8083 12.9219 16.9971V8.97461H13.8938C14.5568 8.97461 15.1927 9.238 15.6615 9.70684C16.1304 10.1757 16.3938 10.8116 16.3938 11.4746V22.8627" stroke="currentColor" stroke-width="1.17604" stroke-linecap="round" stroke-linejoin="round"/>
<path d="M8.29297 18.2334V13.604C8.29297 13.604 10.6055 8.97461 12.9223 8.97461" stroke="currentColor" stroke-width="1.17604" stroke-linecap="round" stroke-linejoin="round"/>
<path d="M23.3377 18.2347C23.1094 18.2347 22.8863 18.1671 22.6964 18.0404L18.9383 15.6235C18.7524 15.5036 18.5995 15.339 18.4936 15.1447C18.3877 14.9505 18.3321 14.7328 18.332 14.5116V13.0304C18.3319 12.967 18.3489 12.9048 18.3811 12.8502C18.4134 12.7957 18.4597 12.7508 18.5152 12.7203C18.5708 12.6898 18.6335 12.6749 18.6968 12.677C18.7602 12.679 18.8217 12.6981 18.8752 12.7322L23.9783 16.1141C24.1851 16.252 24.342 16.4527 24.4259 16.6866C24.5097 16.9206 24.5161 17.1753 24.4439 17.4132C24.3718 17.651 24.225 17.8593 24.0254 18.0072C23.8257 18.1552 23.5837 18.235 23.3352 18.2347H23.3377Z" fill="currentColor"/>
<path d="M11.0757 30.8369C10.8958 30.8371 10.7183 30.7954 10.5574 30.715C10.3965 30.6346 10.2566 30.5178 10.1488 30.3738C9.76503 29.8625 9.89878 29.3 10.38 28.7538L14.1269 24.0875C14.1785 24.0489 14.2376 24.0215 14.3004 24.007C14.3632 23.9925 14.4283 23.9913 14.4916 24.0034C14.5549 24.0155 14.615 24.0407 14.668 24.0774C14.721 24.114 14.7657 24.1613 14.7994 24.2163C14.8969 24.375 15.0107 24.5694 15.1238 24.7844C15.4513 25.4063 15.4988 25.7913 15.0188 26.3907C14.5188 27.0157 11.7688 30.6057 11.7688 30.6057C11.605 30.7919 11.3169 30.8369 11.0757 30.8369Z" fill="currentColor"/>
<path d="M16.3931 6.66027C17.6717 6.66027 18.7081 5.62381 18.7081 4.34527C18.7081 3.06673 17.6717 2.03027 16.3931 2.03027C15.1146 2.03027 14.0781 3.06673 14.0781 4.34527C14.0781 5.62381 15.1146 6.66027 16.3931 6.66027Z" fill="currentColor" stroke="currentColor" stroke-width="0.58802" stroke-linecap="round" stroke-linejoin="round"/>
</svg>
