<svg width="93" height="91" viewBox="0 0 93 91" fill="none" xmlns="http://www.w3.org/2000/svg">
<path d="M15.703 59.5V58.252V57.602C15.703 56.6313 15.8807 55.795 16.236 55.093C16.6 54.3823 17.081 53.7627 17.679 53.234C18.277 52.7053 18.9313 52.2287 19.642 51.804C20.3527 51.3707 21.059 50.9503 21.761 50.543C22.4717 50.1357 23.126 49.7067 23.724 49.256C24.322 48.7967 24.7987 48.2723 25.154 47.683C25.518 47.0937 25.7 46.396 25.7 45.59C25.7 44.5153 25.3187 43.6487 24.556 42.99C23.802 42.3227 22.788 41.989 21.514 41.989C20.1273 41.989 19.0353 42.3747 18.238 43.146C17.4407 43.9173 17.0117 44.901 16.951 46.097H15.261C15.287 45.0743 15.547 44.1383 16.041 43.289C16.535 42.431 17.2457 41.742 18.173 41.222C19.109 40.702 20.253 40.442 21.605 40.442C22.7837 40.442 23.8063 40.6587 24.673 41.092C25.5483 41.5167 26.2243 42.119 26.701 42.899C27.1863 43.6703 27.429 44.5717 27.429 45.603C27.429 46.5737 27.247 47.41 26.883 48.112C26.5277 48.814 26.0553 49.425 25.466 49.945C24.8767 50.465 24.231 50.9373 23.529 51.362C22.827 51.778 22.1207 52.1853 21.41 52.584C20.6993 52.974 20.0493 53.3943 19.46 53.845C18.8707 54.2957 18.394 54.8157 18.03 55.405C17.6747 55.9857 17.497 56.679 17.497 57.485V57.966H27.598V59.5H15.703ZM36.6517 40.442C38.5757 40.442 40.1184 41.248 41.2797 42.86C42.4497 44.472 43.0347 46.8987 43.0347 50.14C43.0347 53.364 42.4497 55.7777 41.2797 57.381C40.1184 58.9843 38.567 59.786 36.6257 59.786C34.6844 59.786 33.133 58.993 31.9717 57.407C30.819 55.8123 30.2427 53.403 30.2427 50.179C30.2427 48.0123 30.5114 46.2097 31.0487 44.771C31.586 43.3237 32.3314 42.2403 33.2847 41.521C34.2467 40.8017 35.369 40.442 36.6517 40.442ZM36.6647 58.278C38.1294 58.278 39.2517 57.6367 40.0317 56.354C40.8204 55.0713 41.2147 53 41.2147 50.14C41.2147 47.2453 40.816 45.1523 40.0187 43.861C39.2214 42.5697 38.0947 41.924 36.6387 41.924C35.1914 41.924 34.0604 42.574 33.2457 43.874C32.431 45.174 32.0237 47.2627 32.0237 50.14C32.0237 52.9913 32.431 55.0627 33.2457 56.354C34.0604 57.6367 35.2 58.278 36.6647 58.278ZM46.0702 59.5V58.252V57.602C46.0702 56.6313 46.2479 55.795 46.6032 55.093C46.9672 54.3823 47.4482 53.7627 48.0462 53.234C48.6442 52.7053 49.2985 52.2287 50.0092 51.804C50.7199 51.3707 51.4262 50.9503 52.1282 50.543C52.8389 50.1357 53.4932 49.7067 54.0912 49.256C54.6892 48.7967 55.1659 48.2723 55.5212 47.683C55.8852 47.0937 56.0672 46.396 56.0672 45.59C56.0672 44.5153 55.6859 43.6487 54.9232 42.99C54.1692 42.3227 53.1552 41.989 51.8812 41.989C50.4945 41.989 49.4025 42.3747 48.6052 43.146C47.8079 43.9173 47.3789 44.901 47.3182 46.097H45.6282C45.6542 45.0743 45.9142 44.1383 46.4082 43.289C46.9022 42.431 47.6129 41.742 48.5402 41.222C49.4762 40.702 50.6202 40.442 51.9722 40.442C53.1509 40.442 54.1735 40.6587 55.0402 41.092C55.9155 41.5167 56.5915 42.119 57.0682 42.899C57.5535 43.6703 57.7962 44.5717 57.7962 45.603C57.7962 46.5737 57.6142 47.41 57.2502 48.112C56.8949 48.814 56.4225 49.425 55.8332 49.945C55.2439 50.465 54.5982 50.9373 53.8962 51.362C53.1942 51.778 52.4879 52.1853 51.7772 52.584C51.0665 52.974 50.4165 53.3943 49.8272 53.845C49.2379 54.2957 48.7612 54.8157 48.3972 55.405C48.0419 55.9857 47.8642 56.679 47.8642 57.485V57.966H57.9652V59.5H46.0702ZM60.9999 59.5V58.252V57.602C60.9999 56.6313 61.1775 55.795 61.5329 55.093C61.8969 54.3823 62.3779 53.7627 62.9759 53.234C63.5739 52.7053 64.2282 52.2287 64.9389 51.804C65.6495 51.3707 66.3559 50.9503 67.0579 50.543C67.7685 50.1357 68.4229 49.7067 69.0209 49.256C69.6189 48.7967 70.0955 48.2723 70.4509 47.683C70.8149 47.0937 70.9969 46.396 70.9969 45.59C70.9969 44.5153 70.6155 43.6487 69.8529 42.99C69.0989 42.3227 68.0849 41.989 66.8109 41.989C65.4242 41.989 64.3322 42.3747 63.5349 43.146C62.7375 43.9173 62.3085 44.901 62.2479 46.097H60.5579C60.5839 45.0743 60.8439 44.1383 61.3379 43.289C61.8319 42.431 62.5425 41.742 63.4699 41.222C64.4059 40.702 65.5499 40.442 66.9019 40.442C68.0805 40.442 69.1032 40.6587 69.9699 41.092C70.8452 41.5167 71.5212 42.119 71.9979 42.899C72.4832 43.6703 72.7259 44.5717 72.7259 45.603C72.7259 46.5737 72.5439 47.41 72.1799 48.112C71.8245 48.814 71.3522 49.425 70.7629 49.945C70.1735 50.465 69.5279 50.9373 68.8259 51.362C68.1239 51.778 67.4175 52.1853 66.7069 52.584C65.9962 52.974 65.3462 53.3943 64.7569 53.845C64.1675 54.2957 63.6909 54.8157 63.3269 55.405C62.9715 55.9857 62.7939 56.679 62.7939 57.485V57.966H72.8949V59.5H60.9999Z" fill="#D69E2E"/>
<path d="M1.25 11.5C1.25 9.98122 2.48122 8.75 4 8.75H84C85.5188 8.75 86.75 9.98122 86.75 11.5V82.5C86.75 84.0188 85.5188 85.25 84 85.25H4C2.48122 85.25 1.25 84.0188 1.25 82.5V11.5Z" stroke="#044B7F" stroke-width="2.5"/>
<path d="M2 26H86.5" stroke="#044B7F" stroke-width="2"/>
<path d="M84.9996 83.5007L69.9995 83.5006L85.0003 66.0007L84.9996 83.5007Z" fill="#D69E2E"/>
<mask id="path-5-inside-1_1994_37866" fill="white">
<path d="M11 1C11 0.447716 11.4477 0 12 0H15C15.5523 0 16 0.447715 16 1V14H11V1Z"/>
</mask>
<path d="M11 1C11 0.447716 11.4477 0 12 0H15C15.5523 0 16 0.447715 16 1V14H11V1Z" stroke="#D69E2E" stroke-width="3" mask="url(#path-5-inside-1_1994_37866)"/>
<mask id="path-6-inside-2_1994_37866" fill="white">
<path d="M74 1C74 0.447716 74.4477 0 75 0H78C78.5523 0 79 0.447715 79 1V14H74V1Z"/>
</mask>
<path d="M74 1C74 0.447716 74.4477 0 75 0H78C78.5523 0 79 0.447715 79 1V14H74V1Z" stroke="#D69E2E" stroke-width="3" mask="url(#path-6-inside-2_1994_37866)"/>
</svg>
