<svg width="750" height="33" viewBox="0 0 750 33" fill="none" xmlns="http://www.w3.org/2000/svg">
<rect y="9" width="750" height="20" rx="4" fill="#E9ECEF"/>
<rect width="150" height="20" transform="translate(0 9)" fill="#E49273"/>
<path d="M46.999 24V16.202H45.123V15.187C46.0097 15.187 46.6303 15.075 46.985 14.851C47.3397 14.6223 47.5357 14.298 47.573 13.878H48.735V24H46.999ZM57.5001 24.14C56.4641 24.14 55.6334 23.8133 55.0081 23.16C54.3874 22.502 54.0771 21.5873 54.0771 20.416C54.0771 19.66 54.2124 18.9973 54.4831 18.428C54.7584 17.8587 55.1528 17.4153 55.6661 17.098C56.1794 16.7807 56.7931 16.622 57.5071 16.622C58.5431 16.622 59.3668 16.958 59.9781 17.63C60.5941 18.302 60.9021 19.2307 60.9021 20.416C60.9021 21.1487 60.7691 21.795 60.5031 22.355C60.2418 22.915 59.8568 23.3537 59.3481 23.671C58.8441 23.9837 58.2281 24.14 57.5001 24.14ZM57.5071 22.845C58.0951 22.845 58.5291 22.6117 58.8091 22.145C59.0938 21.6783 59.2361 21.0857 59.2361 20.367C59.2361 19.9237 59.1801 19.5153 59.0681 19.142C58.9561 18.7687 58.7718 18.47 58.5151 18.246C58.2631 18.0173 57.9271 17.903 57.5071 17.903C56.9098 17.903 56.4688 18.1317 56.1841 18.589C55.8994 19.0463 55.7571 19.639 55.7571 20.367C55.7571 20.8057 55.8131 21.214 55.9251 21.592C56.0371 21.9653 56.2214 22.2687 56.4781 22.502C56.7348 22.7307 57.0778 22.845 57.5071 22.845ZM65.0791 24.14C64.6078 24.1353 64.1621 24.042 63.7421 23.86C63.3221 23.678 62.9791 23.4097 62.7131 23.055C62.4471 22.6957 62.3141 22.2523 62.3141 21.725V16.762H64.0221V21.529C64.0221 21.9257 64.1458 22.25 64.3931 22.502C64.6451 22.7493 65.0231 22.873 65.5271 22.873C65.9845 22.873 66.3508 22.754 66.6261 22.516C66.9015 22.2733 67.0391 21.9257 67.0391 21.473V16.762H68.7331V24H67.4241L67.2351 22.586C67.1465 22.9827 66.9901 23.2953 66.7661 23.524C66.5468 23.748 66.2878 23.9067 65.9891 24C65.6951 24.0933 65.3918 24.14 65.0791 24.14ZM74.7163 17.966H73.0993L73.1063 22.117C73.1063 22.439 73.1623 22.6397 73.2743 22.719C73.3863 22.7937 73.5799 22.831 73.8553 22.831H74.7513V23.909C74.6533 23.9463 74.5086 23.979 74.3173 24.007C74.1306 24.0397 73.8809 24.056 73.5683 24.056C72.9943 24.056 72.5486 23.9813 72.2313 23.832C71.9186 23.6827 71.7016 23.468 71.5803 23.188C71.4589 22.9033 71.3983 22.5673 71.3983 22.18V17.966H70.2223V16.762H71.4473L71.8743 14.613H73.0993V16.755H74.7163V17.966ZM82.4923 24.14C81.4563 24.14 80.6256 23.8133 80.0003 23.16C79.3796 22.502 79.0693 21.5873 79.0693 20.416C79.0693 19.66 79.2046 18.9973 79.4753 18.428C79.7506 17.8587 80.1449 17.4153 80.6583 17.098C81.1716 16.7807 81.7853 16.622 82.4993 16.622C83.5353 16.622 84.3589 16.958 84.9703 17.63C85.5863 18.302 85.8943 19.2307 85.8943 20.416C85.8943 21.1487 85.7613 21.795 85.4953 22.355C85.2339 22.915 84.8489 23.3537 84.3403 23.671C83.8363 23.9837 83.2203 24.14 82.4923 24.14ZM82.4993 22.845C83.0873 22.845 83.5213 22.6117 83.8013 22.145C84.0859 21.6783 84.2283 21.0857 84.2283 20.367C84.2283 19.9237 84.1723 19.5153 84.0603 19.142C83.9483 18.7687 83.7639 18.47 83.5073 18.246C83.2553 18.0173 82.9193 17.903 82.4993 17.903C81.9019 17.903 81.4609 18.1317 81.1763 18.589C80.8916 19.0463 80.7493 19.639 80.7493 20.367C80.7493 20.8057 80.8053 21.214 80.9173 21.592C81.0293 21.9653 81.2136 22.2687 81.4703 22.502C81.7269 22.7307 82.0699 22.845 82.4993 22.845ZM91.4339 16.762V17.966H89.8029V24H88.1019V17.966H86.6739V16.762H88.1019V15.684C88.1019 15.1053 88.2606 14.6597 88.5779 14.347C88.8999 14.0343 89.3642 13.878 89.9709 13.878H91.4969L91.5039 15.04H90.4959C90.2206 15.04 90.0316 15.1123 89.9289 15.257C89.8262 15.397 89.7749 15.6187 89.7749 15.922V16.762H91.4339ZM96.7313 13.878H103.024L102.961 15.299H98.1173L97.8863 18.113C98.2456 17.861 98.6073 17.679 98.9713 17.567C99.3353 17.455 99.7366 17.399 100.175 17.399C100.815 17.399 101.398 17.525 101.925 17.777C102.453 18.029 102.873 18.4 103.185 18.89C103.503 19.38 103.661 19.9797 103.661 20.689C103.661 21.3983 103.503 22.012 103.185 22.53C102.873 23.048 102.429 23.4493 101.855 23.734C101.286 24.014 100.612 24.154 99.8323 24.154C99.1883 24.154 98.5886 24.049 98.0333 23.839C97.4826 23.6243 97.0066 23.3303 96.6053 22.957C96.2086 22.5837 95.9123 22.1567 95.7163 21.676L97.0953 20.948C97.3566 21.4707 97.6926 21.9047 98.1033 22.25C98.5186 22.5907 99.0436 22.761 99.6783 22.761C100.336 22.761 100.864 22.579 101.26 22.215C101.662 21.8463 101.862 21.3563 101.862 20.745C101.862 20.367 101.769 20.031 101.582 19.737C101.4 19.443 101.151 19.2143 100.833 19.051C100.516 18.883 100.159 18.799 99.7623 18.799C99.4029 18.799 99.0739 18.8503 98.7753 18.953C98.4813 19.051 98.1523 19.2703 97.7883 19.611C97.7183 19.639 97.6483 19.6367 97.5783 19.604L96.2693 19.072L96.7313 13.878Z" fill="#212529"/>
<rect x="149" y="9" width="1" height="20" fill="#E49273"/>
<path d="M174.366 31.4737C174.366 31.4737 180 29.1667 180 22.9954C180 19.3641 177.033 16.5749 174.032 15.0385C173.127 12.0721 171.159 9.54451 168.504 7.94128C165.849 6.33804 162.696 5.77221 159.65 6.35249C159.345 6.41247 159.045 6.48399 158.75 6.56243C157.755 5.07427 156.389 3.87196 154.786 3.07473C153.184 2.2775 151.4 1.91305 149.614 2.0175C147.827 2.12196 146.098 2.69169 144.599 3.67022C143.1 4.64874 141.883 6.00206 141.069 7.59598C139.357 6.90741 137.493 6.68743 135.668 6.95866C133.843 7.22989 132.124 7.98255 130.686 9.13915C129.249 10.2957 128.145 11.8145 127.49 13.5391C126.835 15.2637 126.65 17.1318 126.957 18.9512C125.457 18.5544 123.381 19.0158 123.727 22.5617C120.453 23.9966 118.305 28.0132 121.766 31.4737H174.366Z" fill="#EDEDED" stroke="black" stroke-width="3" stroke-miterlimit="10"/>
<path d="M141.26 20.9767C141.26 20.9767 141.26 18.9004 143.337 18.9004C145.413 18.9004 145.413 20.9767 145.413 20.9767" stroke="black" stroke-width="3" stroke-miterlimit="10"/>
<path d="M151.531 22.361L148.528 22.3586" stroke="black" stroke-width="2" stroke-miterlimit="10"/>
<path d="M153.949 20.9767C153.949 20.9767 153.949 18.9004 156.025 18.9004C158.102 18.9004 158.102 20.9767 158.102 20.9767" stroke="black" stroke-width="3" stroke-miterlimit="10"/>
</svg>
