<svg width="750" height="33" viewBox="0 0 750 33" fill="none" xmlns="http://www.w3.org/2000/svg">
<rect y="7" width="750" height="20" rx="4" fill="#E9ECEF"/>
<rect width="300" height="20" transform="translate(0 7)" fill="#E49273"/>
<path d="M118.826 22V20.621C118.826 20.103 118.922 19.6573 119.113 19.284C119.304 18.906 119.559 18.577 119.876 18.297C120.193 18.017 120.541 17.7697 120.919 17.555C121.297 17.3357 121.675 17.1303 122.053 16.939C122.436 16.743 122.783 16.5423 123.096 16.337C123.413 16.127 123.668 15.8937 123.859 15.637C124.055 15.3757 124.153 15.07 124.153 14.72C124.153 14.2673 123.992 13.8987 123.67 13.614C123.353 13.3247 122.921 13.18 122.375 13.18C121.796 13.18 121.318 13.3457 120.94 13.677C120.562 14.0083 120.34 14.475 120.275 15.077H118.623C118.632 14.461 118.779 13.901 119.064 13.397C119.349 12.893 119.771 12.4917 120.331 12.193C120.891 11.8897 121.589 11.738 122.424 11.738C123.147 11.738 123.77 11.864 124.293 12.116C124.82 12.3633 125.226 12.711 125.511 13.159C125.8 13.6023 125.945 14.1203 125.945 14.713C125.945 15.231 125.849 15.6743 125.658 16.043C125.471 16.4117 125.222 16.7313 124.909 17.002C124.601 17.268 124.26 17.5037 123.887 17.709C123.518 17.9143 123.147 18.108 122.774 18.29C122.405 18.4673 122.065 18.654 121.752 18.85C121.444 19.0413 121.194 19.2607 121.003 19.508C120.816 19.7553 120.723 20.0517 120.723 20.397V20.544H125.966V22H118.826ZM133.775 22.14C132.739 22.14 131.909 21.8133 131.283 21.16C130.663 20.502 130.352 19.5873 130.352 18.416C130.352 17.66 130.488 16.9973 130.758 16.428C131.034 15.8587 131.428 15.4153 131.941 15.098C132.455 14.7807 133.068 14.622 133.782 14.622C134.818 14.622 135.642 14.958 136.253 15.63C136.869 16.302 137.177 17.2307 137.177 18.416C137.177 19.1487 137.044 19.795 136.778 20.355C136.517 20.915 136.132 21.3537 135.623 21.671C135.119 21.9837 134.503 22.14 133.775 22.14ZM133.782 20.845C134.37 20.845 134.804 20.6117 135.084 20.145C135.369 19.6783 135.511 19.0857 135.511 18.367C135.511 17.9237 135.455 17.5153 135.343 17.142C135.231 16.7687 135.047 16.47 134.79 16.246C134.538 16.0173 134.202 15.903 133.782 15.903C133.185 15.903 132.744 16.1317 132.459 16.589C132.175 17.0463 132.032 17.639 132.032 18.367C132.032 18.8057 132.088 19.214 132.2 19.592C132.312 19.9653 132.497 20.2687 132.753 20.502C133.01 20.7307 133.353 20.845 133.782 20.845ZM141.355 22.14C140.883 22.1353 140.438 22.042 140.018 21.86C139.598 21.678 139.255 21.4097 138.989 21.055C138.723 20.6957 138.59 20.2523 138.59 19.725V14.762H140.298V19.529C140.298 19.9257 140.421 20.25 140.669 20.502C140.921 20.7493 141.299 20.873 141.803 20.873C142.26 20.873 142.626 20.754 142.902 20.516C143.177 20.2733 143.315 19.9257 143.315 19.473V14.762H145.009V22H143.7L143.511 20.586C143.422 20.9827 143.266 21.2953 143.042 21.524C142.822 21.748 142.563 21.9067 142.265 22C141.971 22.0933 141.667 22.14 141.355 22.14ZM150.992 15.966H149.375L149.382 20.117C149.382 20.439 149.438 20.6397 149.55 20.719C149.662 20.7937 149.855 20.831 150.131 20.831H151.027V21.909C150.929 21.9463 150.784 21.979 150.593 22.007C150.406 22.0397 150.156 22.056 149.844 22.056C149.27 22.056 148.824 21.9813 148.507 21.832C148.194 21.6827 147.977 21.468 147.856 21.188C147.734 20.9033 147.674 20.5673 147.674 20.18V15.966H146.498V14.762H147.723L148.15 12.613H149.375V14.755H150.992V15.966ZM158.768 22.14C157.732 22.14 156.901 21.8133 156.276 21.16C155.655 20.502 155.345 19.5873 155.345 18.416C155.345 17.66 155.48 16.9973 155.751 16.428C156.026 15.8587 156.42 15.4153 156.934 15.098C157.447 14.7807 158.061 14.622 158.775 14.622C159.811 14.622 160.634 14.958 161.246 15.63C161.862 16.302 162.17 17.2307 162.17 18.416C162.17 19.1487 162.037 19.795 161.771 20.355C161.509 20.915 161.124 21.3537 160.616 21.671C160.112 21.9837 159.496 22.14 158.768 22.14ZM158.775 20.845C159.363 20.845 159.797 20.6117 160.077 20.145C160.361 19.6783 160.504 19.0857 160.504 18.367C160.504 17.9237 160.448 17.5153 160.336 17.142C160.224 16.7687 160.039 16.47 159.783 16.246C159.531 16.0173 159.195 15.903 158.775 15.903C158.177 15.903 157.736 16.1317 157.452 16.589C157.167 17.0463 157.025 17.639 157.025 18.367C157.025 18.8057 157.081 19.214 157.193 19.592C157.305 19.9653 157.489 20.2687 157.746 20.502C158.002 20.7307 158.345 20.845 158.775 20.845ZM167.709 14.762V15.966H166.078V22H164.377V15.966H162.949V14.762H164.377V13.684C164.377 13.1053 164.536 12.6597 164.853 12.347C165.175 12.0343 165.64 11.878 166.246 11.878H167.772L167.779 13.04H166.771C166.496 13.04 166.307 13.1123 166.204 13.257C166.102 13.397 166.05 13.6187 166.05 13.922V14.762H167.709ZM173.007 11.878H179.3L179.237 13.299H174.393L174.162 16.113C174.521 15.861 174.883 15.679 175.247 15.567C175.611 15.455 176.012 15.399 176.451 15.399C177.09 15.399 177.673 15.525 178.201 15.777C178.728 16.029 179.148 16.4 179.461 16.89C179.778 17.38 179.937 17.9797 179.937 18.689C179.937 19.3983 179.778 20.012 179.461 20.53C179.148 21.048 178.705 21.4493 178.131 21.734C177.561 22.014 176.887 22.154 176.108 22.154C175.464 22.154 174.864 22.049 174.309 21.839C173.758 21.6243 173.282 21.3303 172.881 20.957C172.484 20.5837 172.188 20.1567 171.992 19.676L173.371 18.948C173.632 19.4707 173.968 19.9047 174.379 20.25C174.794 20.5907 175.319 20.761 175.954 20.761C176.612 20.761 177.139 20.579 177.536 20.215C177.937 19.8463 178.138 19.3563 178.138 18.745C178.138 18.367 178.044 18.031 177.858 17.737C177.676 17.443 177.426 17.2143 177.109 17.051C176.791 16.883 176.434 16.799 176.038 16.799C175.678 16.799 175.349 16.8503 175.051 16.953C174.757 17.051 174.428 17.2703 174.064 17.611C173.994 17.639 173.924 17.6367 173.854 17.604L172.545 17.072L173.007 11.878Z" fill="#212529"/>
<rect x="299" y="7" width="1" height="20" fill="#E49273"/>
<path d="M324.366 31.4737C324.366 31.4737 330 29.1667 330 22.9954C330 19.3641 327.033 16.5749 324.032 15.0385C323.127 12.0721 321.159 9.54451 318.504 7.94128C315.849 6.33804 312.696 5.77221 309.65 6.35249C309.345 6.41247 309.045 6.48399 308.75 6.56243C307.755 5.07427 306.389 3.87196 304.786 3.07473C303.184 2.2775 301.4 1.91305 299.614 2.0175C297.827 2.12196 296.098 2.69169 294.599 3.67022C293.1 4.64874 291.883 6.00206 291.069 7.59598C289.357 6.90741 287.493 6.68743 285.668 6.95866C283.843 7.22989 282.124 7.98255 280.686 9.13915C279.249 10.2957 278.145 11.8145 277.49 13.5391C276.835 15.2637 276.65 17.1318 276.957 18.9512C275.457 18.5544 273.381 19.0158 273.727 22.5617C270.453 23.9966 268.305 28.0132 271.766 31.4737H324.366Z" fill="#EDEDED" stroke="black" stroke-width="3" stroke-miterlimit="10"/>
<path d="M294.202 20.9768C295.189 20.9768 295.99 20.1763 295.99 19.1888C295.99 18.2014 295.189 17.4009 294.202 17.4009C293.215 17.4009 292.414 18.2014 292.414 19.1888C292.414 20.1763 293.215 20.9768 294.202 20.9768Z" stroke="black" stroke-width="2" stroke-miterlimit="10"/>
<path d="M306.89 20.9768C307.878 20.9768 308.678 20.1763 308.678 19.1888C308.678 18.2014 307.878 17.4009 306.89 17.4009C305.903 17.4009 305.103 18.2014 305.103 19.1888C305.103 20.1763 305.903 20.9768 306.89 20.9768Z" stroke="black" stroke-width="2" stroke-miterlimit="10"/>
<path d="M294.951 19.3618C295.334 19.3618 295.643 19.0519 295.643 18.6696C295.643 18.2874 295.334 17.9775 294.951 17.9775C294.569 17.9775 294.259 18.2874 294.259 18.6696C294.259 19.0519 294.569 19.3618 294.951 19.3618Z" fill="black"/>
<path d="M307.64 19.3618C308.023 19.3618 308.332 19.0519 308.332 18.6696C308.332 18.2874 308.023 17.9775 307.64 17.9775C307.258 17.9775 306.948 18.2874 306.948 18.6696C306.948 19.0519 307.258 19.3618 307.64 19.3618Z" fill="black"/>
<path d="M302.454 22.361L299.45 22.3586" stroke="black" stroke-width="2" stroke-miterlimit="10"/>
</svg>
