<svg width="750" height="33" viewBox="0 0 750 33" fill="none" xmlns="http://www.w3.org/2000/svg">
<rect y="11" width="750" height="20" rx="4" fill="#E9ECEF"/>
<rect width="450" height="20" transform="translate(0 11)" fill="#E49273"/>
<path d="M193.235 18.916C193.235 18.2253 193.401 17.6443 193.732 17.173C194.063 16.697 194.507 16.34 195.062 16.102C195.622 15.8593 196.243 15.738 196.924 15.738C197.657 15.738 198.305 15.8383 198.87 16.039C199.439 16.235 199.885 16.5313 200.207 16.928C200.534 17.3247 200.697 17.817 200.697 18.405C200.697 18.909 200.543 19.357 200.235 19.749C199.932 20.1363 199.456 20.442 198.807 20.666C199.414 20.834 199.922 21.1257 200.333 21.541C200.744 21.9517 200.949 22.493 200.949 23.165C200.949 23.8043 200.767 24.348 200.403 24.796C200.044 25.244 199.556 25.5847 198.94 25.818C198.324 26.0467 197.636 26.1587 196.875 26.154C195.736 26.1493 194.833 25.8623 194.166 25.293C193.503 24.7237 193.163 23.949 193.144 22.969H194.803C194.901 23.571 195.139 24.019 195.517 24.313C195.895 24.6023 196.359 24.747 196.91 24.747C197.591 24.747 198.13 24.5977 198.527 24.299C198.924 23.9957 199.122 23.6037 199.122 23.123C199.122 22.6097 198.91 22.2107 198.485 21.926C198.065 21.6413 197.538 21.492 196.903 21.478L195.965 21.45V20.064L196.833 20.029C197.43 20.0103 197.918 19.854 198.296 19.56C198.679 19.2613 198.87 18.8997 198.87 18.475C198.87 18.083 198.693 17.7563 198.338 17.495C197.983 17.229 197.505 17.096 196.903 17.096C196.562 17.096 196.243 17.1567 195.944 17.278C195.645 17.3993 195.398 17.5953 195.202 17.866C195.011 18.132 194.906 18.482 194.887 18.916H193.235ZM208.727 26.14C207.691 26.14 206.86 25.8133 206.235 25.16C205.614 24.502 205.304 23.5873 205.304 22.416C205.304 21.66 205.439 20.9973 205.71 20.428C205.985 19.8587 206.379 19.4153 206.893 19.098C207.406 18.7807 208.02 18.622 208.734 18.622C209.77 18.622 210.593 18.958 211.205 19.63C211.821 20.302 212.129 21.2307 212.129 22.416C212.129 23.1487 211.996 23.795 211.73 24.355C211.468 24.915 211.083 25.3537 210.575 25.671C210.071 25.9837 209.455 26.14 208.727 26.14ZM208.734 24.845C209.322 24.845 209.756 24.6117 210.036 24.145C210.32 23.6783 210.463 23.0857 210.463 22.367C210.463 21.9237 210.407 21.5153 210.295 21.142C210.183 20.7687 209.998 20.47 209.742 20.246C209.49 20.0173 209.154 19.903 208.734 19.903C208.136 19.903 207.695 20.1317 207.411 20.589C207.126 21.0463 206.984 21.639 206.984 22.367C206.984 22.8057 207.04 23.214 207.152 23.592C207.264 23.9653 207.448 24.2687 207.705 24.502C207.961 24.7307 208.304 24.845 208.734 24.845ZM216.306 26.14C215.834 26.1353 215.389 26.042 214.969 25.86C214.549 25.678 214.206 25.4097 213.94 25.055C213.674 24.6957 213.541 24.2523 213.541 23.725V18.762H215.249V23.529C215.249 23.9257 215.372 24.25 215.62 24.502C215.872 24.7493 216.25 24.873 216.754 24.873C217.211 24.873 217.577 24.754 217.853 24.516C218.128 24.2733 218.266 23.9257 218.266 23.473V18.762H219.96V26H218.651L218.462 24.586C218.373 24.9827 218.217 25.2953 217.993 25.524C217.773 25.748 217.514 25.9067 217.216 26C216.922 26.0933 216.618 26.14 216.306 26.14ZM225.943 19.966H224.326L224.333 24.117C224.333 24.439 224.389 24.6397 224.501 24.719C224.613 24.7937 224.806 24.831 225.082 24.831H225.978V25.909C225.88 25.9463 225.735 25.979 225.544 26.007C225.357 26.0397 225.107 26.056 224.795 26.056C224.221 26.056 223.775 25.9813 223.458 25.832C223.145 25.6827 222.928 25.468 222.807 25.188C222.685 24.9033 222.625 24.5673 222.625 24.18V19.966H221.449V18.762H222.674L223.101 16.613H224.326V18.755H225.943V19.966ZM233.719 26.14C232.683 26.14 231.852 25.8133 231.227 25.16C230.606 24.502 230.296 23.5873 230.296 22.416C230.296 21.66 230.431 20.9973 230.702 20.428C230.977 19.8587 231.372 19.4153 231.885 19.098C232.398 18.7807 233.012 18.622 233.726 18.622C234.762 18.622 235.586 18.958 236.197 19.63C236.813 20.302 237.121 21.2307 237.121 22.416C237.121 23.1487 236.988 23.795 236.722 24.355C236.461 24.915 236.076 25.3537 235.567 25.671C235.063 25.9837 234.447 26.14 233.719 26.14ZM233.726 24.845C234.314 24.845 234.748 24.6117 235.028 24.145C235.313 23.6783 235.455 23.0857 235.455 22.367C235.455 21.9237 235.399 21.5153 235.287 21.142C235.175 20.7687 234.991 20.47 234.734 20.246C234.482 20.0173 234.146 19.903 233.726 19.903C233.129 19.903 232.688 20.1317 232.403 20.589C232.118 21.0463 231.976 21.639 231.976 22.367C231.976 22.8057 232.032 23.214 232.144 23.592C232.256 23.9653 232.44 24.2687 232.697 24.502C232.954 24.7307 233.297 24.845 233.726 24.845ZM242.66 18.762V19.966H241.029V26H239.328V19.966H237.9V18.762H239.328V17.684C239.328 17.1053 239.487 16.6597 239.804 16.347C240.126 16.0343 240.591 15.878 241.197 15.878H242.723L242.73 17.04H241.722C241.447 17.04 241.258 17.1123 241.155 17.257C241.053 17.397 241.001 17.6187 241.001 17.922V18.762H242.66ZM247.958 15.878H254.251L254.188 17.299H249.344L249.113 20.113C249.472 19.861 249.834 19.679 250.198 19.567C250.562 19.455 250.963 19.399 251.402 19.399C252.041 19.399 252.624 19.525 253.152 19.777C253.679 20.029 254.099 20.4 254.412 20.89C254.729 21.38 254.888 21.9797 254.888 22.689C254.888 23.3983 254.729 24.012 254.412 24.53C254.099 25.048 253.656 25.4493 253.082 25.734C252.512 26.014 251.838 26.154 251.059 26.154C250.415 26.154 249.815 26.049 249.26 25.839C248.709 25.6243 248.233 25.3303 247.832 24.957C247.435 24.5837 247.139 24.1567 246.943 23.676L248.322 22.948C248.583 23.4707 248.919 23.9047 249.33 24.25C249.745 24.5907 250.27 24.761 250.905 24.761C251.563 24.761 252.09 24.579 252.487 24.215C252.888 23.8463 253.089 23.3563 253.089 22.745C253.089 22.367 252.995 22.031 252.809 21.737C252.627 21.443 252.377 21.2143 252.06 21.051C251.742 20.883 251.385 20.799 250.989 20.799C250.629 20.799 250.3 20.8503 250.002 20.953C249.708 21.051 249.379 21.2703 249.015 21.611C248.945 21.639 248.875 21.6367 248.805 21.604L247.496 21.072L247.958 15.878Z" fill="#212529"/>
<rect x="449" y="11" width="1" height="20" fill="#E49273"/>
<path d="M488.366 31.4737C488.366 31.4737 494 29.1667 494 22.9954C494 19.3641 491.033 16.5749 488.032 15.0385C487.127 12.0721 485.159 9.54451 482.504 7.94128C479.849 6.33804 476.696 5.77221 473.65 6.35249C473.345 6.41247 473.045 6.48399 472.75 6.56243C471.755 5.07427 470.389 3.87196 468.786 3.07473C467.184 2.2775 465.4 1.91305 463.614 2.0175C461.827 2.12196 460.098 2.69169 458.599 3.67022C457.1 4.64874 455.883 6.00206 455.069 7.59598C453.357 6.90741 451.493 6.68743 449.668 6.95866C447.843 7.22989 446.124 7.98255 444.686 9.13915C443.249 10.2957 442.145 11.8145 441.49 13.5391C440.835 15.2637 440.65 17.1318 440.957 18.9512C439.457 18.5544 437.381 19.0158 437.727 22.5617C434.453 23.9966 432.305 28.0132 435.766 31.4737H488.366Z" fill="#EDEDED" stroke="black" stroke-width="3" stroke-miterlimit="10"/>
<path d="M465.203 17.2854C465.203 17.2854 465.203 20.5152 461.974 20.5152C458.744 20.5152 458.721 17.2854 458.721 17.2854H465.203Z" fill="black"/>
<path d="M471.53 17.2854C471.53 17.2854 471.53 20.5152 468.3 20.5152C465.07 20.5152 465.047 17.2854 465.047 17.2854H471.53Z" fill="black"/>
<path d="M461.736 16.6855L458.873 19.5486" stroke="#EDEDED" stroke-width="3.92" stroke-miterlimit="10"/>
<path d="M466.916 23.5145L463.912 23.5122" stroke="black" stroke-width="2" stroke-miterlimit="10"/>
</svg>
