<svg width="750" height="33" viewBox="0 0 750 33" fill="none" xmlns="http://www.w3.org/2000/svg">
<rect y="11" width="750" height="20" rx="4" fill="#E9ECEF"/>
<rect width="600" height="20" transform="translate(0 11)" fill="#E49273"/>
<path d="M273.285 15.878H274.979V22.15H276.596V23.599H274.979V26H273.327L273.334 23.599H268.623V22.15L273.285 15.878ZM270.219 22.15H273.32V17.992L270.219 22.15ZM284.145 26.14C283.109 26.14 282.278 25.8133 281.653 25.16C281.032 24.502 280.722 23.5873 280.722 22.416C280.722 21.66 280.857 20.9973 281.128 20.428C281.403 19.8587 281.797 19.4153 282.311 19.098C282.824 18.7807 283.438 18.622 284.152 18.622C285.188 18.622 286.011 18.958 286.623 19.63C287.239 20.302 287.547 21.2307 287.547 22.416C287.547 23.1487 287.414 23.795 287.148 24.355C286.886 24.915 286.501 25.3537 285.993 25.671C285.489 25.9837 284.873 26.14 284.145 26.14ZM284.152 24.845C284.74 24.845 285.174 24.6117 285.454 24.145C285.738 23.6783 285.881 23.0857 285.881 22.367C285.881 21.9237 285.825 21.5153 285.713 21.142C285.601 20.7687 285.416 20.47 285.16 20.246C284.908 20.0173 284.572 19.903 284.152 19.903C283.554 19.903 283.113 20.1317 282.829 20.589C282.544 21.0463 282.402 21.639 282.402 22.367C282.402 22.8057 282.458 23.214 282.57 23.592C282.682 23.9653 282.866 24.2687 283.123 24.502C283.379 24.7307 283.722 24.845 284.152 24.845ZM291.724 26.14C291.252 26.1353 290.807 26.042 290.387 25.86C289.967 25.678 289.624 25.4097 289.358 25.055C289.092 24.6957 288.959 24.2523 288.959 23.725V18.762H290.667V23.529C290.667 23.9257 290.79 24.25 291.038 24.502C291.29 24.7493 291.668 24.873 292.172 24.873C292.629 24.873 292.995 24.754 293.271 24.516C293.546 24.2733 293.684 23.9257 293.684 23.473V18.762H295.378V26H294.069L293.88 24.586C293.791 24.9827 293.635 25.2953 293.411 25.524C293.191 25.748 292.932 25.9067 292.634 26C292.34 26.0933 292.036 26.14 291.724 26.14ZM301.361 19.966H299.744L299.751 24.117C299.751 24.439 299.807 24.6397 299.919 24.719C300.031 24.7937 300.224 24.831 300.5 24.831H301.396V25.909C301.298 25.9463 301.153 25.979 300.962 26.007C300.775 26.0397 300.525 26.056 300.213 26.056C299.639 26.056 299.193 25.9813 298.876 25.832C298.563 25.6827 298.346 25.468 298.225 25.188C298.103 24.9033 298.043 24.5673 298.043 24.18V19.966H296.867V18.762H298.092L298.519 16.613H299.744V18.755H301.361V19.966ZM309.137 26.14C308.101 26.14 307.27 25.8133 306.645 25.16C306.024 24.502 305.714 23.5873 305.714 22.416C305.714 21.66 305.849 20.9973 306.12 20.428C306.395 19.8587 306.789 19.4153 307.303 19.098C307.816 18.7807 308.43 18.622 309.144 18.622C310.18 18.622 311.003 18.958 311.615 19.63C312.231 20.302 312.539 21.2307 312.539 22.416C312.539 23.1487 312.406 23.795 312.14 24.355C311.878 24.915 311.493 25.3537 310.985 25.671C310.481 25.9837 309.865 26.14 309.137 26.14ZM309.144 24.845C309.732 24.845 310.166 24.6117 310.446 24.145C310.73 23.6783 310.873 23.0857 310.873 22.367C310.873 21.9237 310.817 21.5153 310.705 21.142C310.593 20.7687 310.408 20.47 310.152 20.246C309.9 20.0173 309.564 19.903 309.144 19.903C308.546 19.903 308.105 20.1317 307.821 20.589C307.536 21.0463 307.394 21.639 307.394 22.367C307.394 22.8057 307.45 23.214 307.562 23.592C307.674 23.9653 307.858 24.2687 308.115 24.502C308.371 24.7307 308.714 24.845 309.144 24.845ZM318.078 18.762V19.966H316.447V26H314.746V19.966H313.318V18.762H314.746V17.684C314.746 17.1053 314.905 16.6597 315.222 16.347C315.544 16.0343 316.009 15.878 316.615 15.878H318.141L318.148 17.04H317.14C316.865 17.04 316.676 17.1123 316.573 17.257C316.471 17.397 316.419 17.6187 316.419 17.922V18.762H318.078ZM323.376 15.878H329.669L329.606 17.299H324.762L324.531 20.113C324.89 19.861 325.252 19.679 325.616 19.567C325.98 19.455 326.381 19.399 326.82 19.399C327.459 19.399 328.042 19.525 328.57 19.777C329.097 20.029 329.517 20.4 329.83 20.89C330.147 21.38 330.306 21.9797 330.306 22.689C330.306 23.3983 330.147 24.012 329.83 24.53C329.517 25.048 329.074 25.4493 328.5 25.734C327.93 26.014 327.256 26.154 326.477 26.154C325.833 26.154 325.233 26.049 324.678 25.839C324.127 25.6243 323.651 25.3303 323.25 24.957C322.853 24.5837 322.557 24.1567 322.361 23.676L323.74 22.948C324.001 23.4707 324.337 23.9047 324.748 24.25C325.163 24.5907 325.688 24.761 326.323 24.761C326.981 24.761 327.508 24.579 327.905 24.215C328.306 23.8463 328.507 23.3563 328.507 22.745C328.507 22.367 328.413 22.031 328.227 21.737C328.045 21.443 327.795 21.2143 327.478 21.051C327.16 20.883 326.803 20.799 326.407 20.799C326.047 20.799 325.718 20.8503 325.42 20.953C325.126 21.051 324.797 21.2703 324.433 21.611C324.363 21.639 324.293 21.6367 324.223 21.604L322.914 21.072L323.376 15.878Z" fill="#212529"/>
<rect x="599" y="11" width="1" height="20" fill="#E49273"/>
<path d="M637.366 31.4737C637.366 31.4737 643 29.1667 643 22.9954C643 19.3641 640.033 16.5749 637.032 15.0385C636.127 12.0721 634.159 9.54451 631.504 7.94128C628.849 6.33804 625.696 5.77221 622.65 6.35249C622.345 6.41247 622.045 6.48399 621.75 6.56243C620.755 5.07427 619.389 3.87196 617.786 3.07473C616.184 2.2775 614.4 1.91305 612.614 2.0175C610.827 2.12196 609.098 2.69169 607.599 3.67022C606.1 4.64874 604.883 6.00206 604.069 7.59598C602.357 6.90741 600.493 6.68743 598.668 6.95866C596.843 7.22989 595.124 7.98255 593.686 9.13915C592.249 10.2957 591.145 11.8145 590.49 13.5391C589.835 15.2637 589.65 17.1318 589.957 18.9512C588.457 18.5544 586.381 19.0158 586.727 22.5617C583.453 23.9966 581.305 28.0132 584.766 31.4737H637.366Z" fill="#F8E4DD" stroke="black" stroke-width="3" stroke-miterlimit="10"/>
<path d="M615.684 21.4382C615.684 21.4382 615.684 22.9401 614.185 22.9401C612.685 22.9401 612.681 21.4382 612.681 21.4382H615.684Z" stroke="black" stroke-width="2" stroke-miterlimit="10"/>
<path d="M607.894 20.0539C608.882 20.0539 609.682 19.2534 609.682 18.266C609.682 17.2785 608.882 16.478 607.894 16.478C606.907 16.478 606.106 17.2785 606.106 18.266C606.106 19.2534 606.907 20.0539 607.894 20.0539Z" stroke="black" stroke-width="2" stroke-miterlimit="10"/>
<path d="M620.583 20.0539C621.57 20.0539 622.371 19.2534 622.371 18.266C622.371 17.2785 621.57 16.478 620.583 16.478C619.595 16.478 618.795 17.2785 618.795 18.266C618.795 19.2534 619.595 20.0539 620.583 20.0539Z" stroke="black" stroke-width="2" stroke-miterlimit="10"/>
<path d="M608.643 18.4389C609.026 18.4389 609.335 18.129 609.335 17.7468C609.335 17.3646 609.026 17.0547 608.643 17.0547C608.261 17.0547 607.951 17.3646 607.951 17.7468C607.951 18.129 608.261 18.4389 608.643 18.4389Z" fill="black"/>
<path d="M621.333 18.4389C621.715 18.4389 622.025 18.129 622.025 17.7468C622.025 17.3646 621.715 17.0547 621.333 17.0547C620.95 17.0547 620.641 17.3646 620.641 17.7468C620.641 18.129 620.95 18.4389 621.333 18.4389Z" fill="black"/>
</svg>
