<svg width="759" height="33" viewBox="0 0 759 33" fill="none" xmlns="http://www.w3.org/2000/svg">
<rect y="11" width="750" height="20" rx="4" fill="#E9ECEF"/>
<rect width="750" height="20" transform="translate(0 11)" fill="#E49273"/>
<path d="M344.159 15.878H350.452L350.389 17.299H345.545L345.314 20.113C345.673 19.861 346.035 19.679 346.399 19.567C346.763 19.455 347.164 19.399 347.603 19.399C348.242 19.399 348.826 19.525 349.353 19.777C349.88 20.029 350.3 20.4 350.613 20.89C350.93 21.38 351.089 21.9797 351.089 22.689C351.089 23.3983 350.93 24.012 350.613 24.53C350.3 25.048 349.857 25.4493 349.283 25.734C348.714 26.014 348.039 26.154 347.26 26.154C346.616 26.154 346.016 26.049 345.461 25.839C344.91 25.6243 344.434 25.3303 344.033 24.957C343.636 24.5837 343.34 24.1567 343.144 23.676L344.523 22.948C344.784 23.4707 345.12 23.9047 345.531 24.25C345.946 24.5907 346.471 24.761 347.106 24.761C347.764 24.761 348.291 24.579 348.688 24.215C349.089 23.8463 349.29 23.3563 349.29 22.745C349.29 22.367 349.197 22.031 349.01 21.737C348.828 21.443 348.578 21.2143 348.261 21.051C347.944 20.883 347.587 20.799 347.19 20.799C346.831 20.799 346.502 20.8503 346.203 20.953C345.909 21.051 345.58 21.2703 345.216 21.611C345.146 21.639 345.076 21.6367 345.006 21.604L343.697 21.072L344.159 15.878ZM358.863 26.14C357.827 26.14 356.997 25.8133 356.371 25.16C355.751 24.502 355.44 23.5873 355.44 22.416C355.44 21.66 355.576 20.9973 355.846 20.428C356.122 19.8587 356.516 19.4153 357.029 19.098C357.543 18.7807 358.156 18.622 358.87 18.622C359.906 18.622 360.73 18.958 361.341 19.63C361.957 20.302 362.265 21.2307 362.265 22.416C362.265 23.1487 362.132 23.795 361.866 24.355C361.605 24.915 361.22 25.3537 360.711 25.671C360.207 25.9837 359.591 26.14 358.863 26.14ZM358.87 24.845C359.458 24.845 359.892 24.6117 360.172 24.145C360.457 23.6783 360.599 23.0857 360.599 22.367C360.599 21.9237 360.543 21.5153 360.431 21.142C360.319 20.7687 360.135 20.47 359.878 20.246C359.626 20.0173 359.29 19.903 358.87 19.903C358.273 19.903 357.832 20.1317 357.547 20.589C357.263 21.0463 357.12 21.639 357.12 22.367C357.12 22.8057 357.176 23.214 357.288 23.592C357.4 23.9653 357.585 24.2687 357.841 24.502C358.098 24.7307 358.441 24.845 358.87 24.845ZM366.442 26.14C365.971 26.1353 365.525 26.042 365.105 25.86C364.685 25.678 364.342 25.4097 364.076 25.055C363.81 24.6957 363.677 24.2523 363.677 23.725V18.762H365.385V23.529C365.385 23.9257 365.509 24.25 365.756 24.502C366.008 24.7493 366.386 24.873 366.89 24.873C367.348 24.873 367.714 24.754 367.989 24.516C368.265 24.2733 368.402 23.9257 368.402 23.473V18.762H370.096V26H368.787L368.598 24.586C368.51 24.9827 368.353 25.2953 368.129 25.524C367.91 25.748 367.651 25.9067 367.352 26C367.058 26.0933 366.755 26.14 366.442 26.14ZM376.08 19.966H374.463L374.47 24.117C374.47 24.439 374.526 24.6397 374.638 24.719C374.75 24.7937 374.943 24.831 375.219 24.831H376.115V25.909C376.017 25.9463 375.872 25.979 375.681 26.007C375.494 26.0397 375.244 26.056 374.932 26.056C374.358 26.056 373.912 25.9813 373.595 25.832C373.282 25.6827 373.065 25.468 372.944 25.188C372.822 24.9033 372.762 24.5673 372.762 24.18V19.966H371.586V18.762H372.811L373.238 16.613H374.463V18.755H376.08V19.966ZM383.856 26.14C382.82 26.14 381.989 25.8133 381.364 25.16C380.743 24.502 380.433 23.5873 380.433 22.416C380.433 21.66 380.568 20.9973 380.839 20.428C381.114 19.8587 381.508 19.4153 382.022 19.098C382.535 18.7807 383.149 18.622 383.863 18.622C384.899 18.622 385.722 18.958 386.334 19.63C386.95 20.302 387.258 21.2307 387.258 22.416C387.258 23.1487 387.125 23.795 386.859 24.355C386.597 24.915 386.212 25.3537 385.704 25.671C385.2 25.9837 384.584 26.14 383.856 26.14ZM383.863 24.845C384.451 24.845 384.885 24.6117 385.165 24.145C385.449 23.6783 385.592 23.0857 385.592 22.367C385.592 21.9237 385.536 21.5153 385.424 21.142C385.312 20.7687 385.127 20.47 384.871 20.246C384.619 20.0173 384.283 19.903 383.863 19.903C383.265 19.903 382.824 20.1317 382.54 20.589C382.255 21.0463 382.113 21.639 382.113 22.367C382.113 22.8057 382.169 23.214 382.281 23.592C382.393 23.9653 382.577 24.2687 382.834 24.502C383.09 24.7307 383.433 24.845 383.863 24.845ZM392.797 18.762V19.966H391.166V26H389.465V19.966H388.037V18.762H389.465V17.684C389.465 17.1053 389.624 16.6597 389.941 16.347C390.263 16.0343 390.728 15.878 391.334 15.878H392.86L392.867 17.04H391.859C391.584 17.04 391.395 17.1123 391.292 17.257C391.19 17.397 391.138 17.6187 391.138 17.922V18.762H392.797ZM398.095 15.878H404.388L404.325 17.299H399.481L399.25 20.113C399.609 19.861 399.971 19.679 400.335 19.567C400.699 19.455 401.1 19.399 401.539 19.399C402.178 19.399 402.761 19.525 403.289 19.777C403.816 20.029 404.236 20.4 404.549 20.89C404.866 21.38 405.025 21.9797 405.025 22.689C405.025 23.3983 404.866 24.012 404.549 24.53C404.236 25.048 403.793 25.4493 403.219 25.734C402.649 26.014 401.975 26.154 401.196 26.154C400.552 26.154 399.952 26.049 399.397 25.839C398.846 25.6243 398.37 25.3303 397.969 24.957C397.572 24.5837 397.276 24.1567 397.08 23.676L398.459 22.948C398.72 23.4707 399.056 23.9047 399.467 24.25C399.882 24.5907 400.407 24.761 401.042 24.761C401.7 24.761 402.227 24.579 402.624 24.215C403.025 23.8463 403.226 23.3563 403.226 22.745C403.226 22.367 403.132 22.031 402.946 21.737C402.764 21.443 402.514 21.2143 402.197 21.051C401.879 20.883 401.522 20.799 401.126 20.799C400.766 20.799 400.437 20.8503 400.139 20.953C399.845 21.051 399.516 21.2703 399.152 21.611C399.082 21.639 399.012 21.6367 398.942 21.604L397.633 21.072L398.095 15.878Z" fill="#212529"/>
<rect x="749" y="11" width="1" height="20" fill="#E49273"/>
<path d="M751.366 31.4751C751.366 31.4751 757 29.168 757 22.9964C757 19.365 754.033 16.5756 751.032 15.0391C750.127 12.0726 748.159 9.54488 745.504 7.94156C742.849 6.33825 739.696 5.77239 736.65 6.3527C736.345 6.41268 736.045 6.4842 735.75 6.56265C734.755 5.07442 733.389 3.87205 731.786 3.07479C730.184 2.27752 728.4 1.91304 726.614 2.0175C724.827 2.12196 723.098 2.69173 721.599 3.6703C720.1 4.64887 718.883 6.00225 718.069 7.59625C716.357 6.90765 714.493 6.68765 712.668 6.9589C710.843 7.23014 709.124 7.98284 707.686 9.13949C706.249 10.2961 705.145 11.815 704.49 13.5397C703.835 15.2643 703.65 17.1325 703.957 18.952C702.457 18.5552 700.381 19.0166 700.727 22.5627C697.453 23.9977 695.305 28.0144 698.766 31.4751H751.366Z" fill="#F2C9BA" stroke="#AB4621" stroke-width="3" stroke-miterlimit="10"/>
<path d="M718.26 20.9775C718.26 20.9775 718.26 18.9011 720.336 18.9011C722.412 18.9011 722.412 20.9775 722.412 20.9775" stroke="#AB4621" stroke-width="3" stroke-miterlimit="10"/>
<path d="M728.531 20.8623C728.531 20.8623 728.531 22.3619 727.032 22.3619C725.532 22.3619 725.527 20.8577 725.527 20.8577L728.531 20.8623Z" stroke="#AB4621" stroke-width="2" stroke-miterlimit="10"/>
<path d="M730.949 20.9775C730.949 20.9775 730.949 18.9011 733.026 18.9011C735.102 18.9011 735.102 20.9775 735.102 20.9775" stroke="#AB4621" stroke-width="3" stroke-miterlimit="10"/>
</svg>
