<svg width="150" height="89" viewBox="0 0 150 89" fill="none" xmlns="http://www.w3.org/2000/svg">
<path d="M135.916 88.8462C135.916 88.8462 150 81.8918 150 63.2889C150 52.3428 142.583 43.935 135.079 39.3034C132.818 30.3615 127.897 22.7423 121.26 17.9095C114.624 13.0767 106.74 11.371 99.1242 13.1202C98.3629 13.301 97.6131 13.5166 96.8749 13.7531C94.3882 9.26713 90.9722 5.64288 86.9657 3.2397C82.9591 0.836515 78.5011 -0.262113 74.0338 0.0527566C69.5666 0.367626 65.2451 2.08505 61.4981 5.03474C57.751 7.98442 54.7085 12.0639 52.6722 16.8686C48.3931 14.793 43.7325 14.1299 39.1702 14.9475C34.608 15.7651 30.3088 18.0339 26.7153 21.5204C23.1218 25.0069 20.3637 29.5851 18.725 34.7837C17.0863 39.9824 16.6262 45.6136 17.392 51.0979C13.6431 49.9018 8.45226 51.2927 9.3174 61.9815C1.13322 66.3071 -4.23639 78.4146 4.41496 88.8462H135.916Z" fill="#DFEEFB"/>
<path d="M60.505 57.2031C62.9737 57.2031 64.9749 54.7901 64.9749 51.8135C64.9749 48.8368 62.9737 46.4238 60.505 46.4238C58.0364 46.4238 56.0352 48.8368 56.0352 51.8135C56.0352 54.7901 58.0364 57.2031 60.505 57.2031Z" fill="white" stroke="black" stroke-width="2" stroke-miterlimit="10"/>
<path d="M92.2277 57.2031C94.6963 57.2031 96.6975 54.7901 96.6975 51.8135C96.6975 48.8368 94.6963 46.4238 92.2277 46.4238C89.759 46.4238 87.7578 48.8368 87.7578 51.8135C87.7578 54.7901 89.759 57.2031 92.2277 57.2031Z" fill="white" stroke="black" stroke-width="2" stroke-miterlimit="10"/>
<path d="M62.3787 52.3367C63.3343 52.3367 64.109 51.4026 64.109 50.2504C64.109 49.0981 63.3343 48.1641 62.3787 48.1641C61.4231 48.1641 60.6484 49.0981 60.6484 50.2504C60.6484 51.4026 61.4231 52.3367 62.3787 52.3367Z" fill="black"/>
<path d="M94.1014 52.3367C95.057 52.3367 95.8316 51.4026 95.8316 50.2504C95.8316 49.0981 95.057 48.1641 94.1014 48.1641C93.1458 48.1641 92.3711 49.0981 92.3711 50.2504C92.3711 51.4026 93.1458 52.3367 94.1014 52.3367Z" fill="black"/>
<path d="M81.1344 61.3761L73.625 61.3691" stroke="black" stroke-width="2" stroke-miterlimit="10"/>
</svg>
