<svg width="100%" height="89" viewBox="0 0 150 89" fill="none" xmlns="http://www.w3.org/2000/svg">
<path d="M135.916 89C135.916 89 150 82.0336 150 63.3985C150 52.4334 142.583 44.011 135.079 39.3714C132.818 30.4141 127.897 22.7817 121.26 17.9405C114.624 13.0993 106.74 11.3907 99.1242 13.1429C98.3629 13.3241 97.6131 13.54 96.8749 13.7769C94.3882 9.28318 90.9722 5.65265 86.9657 3.24531C82.9591 0.837963 78.5011 -0.262567 74.0339 0.0528479C69.5666 0.368263 65.2451 2.08867 61.4981 5.04346C57.751 7.99825 54.7085 12.0848 52.6722 16.8978C48.3931 14.8186 43.7325 14.1543 39.1702 14.9734C34.608 15.7924 30.3088 18.0651 26.7153 21.5576C23.1218 25.0502 20.3637 29.6363 18.725 34.8439C17.0863 40.0516 16.6262 45.6926 17.392 51.1864C13.6431 49.9882 8.45226 51.3815 9.3174 62.0888C1.13322 66.4219 -4.23639 78.5504 4.41496 89H135.916Z" fill="#9ECBF2"/>
<path d="M81.712 58.6961C81.712 58.6961 81.712 63.2312 77.9631 63.2312C74.2142 63.2312 74.2026 58.6961 74.2026 58.6961H81.712Z" stroke="black" stroke-width="2" stroke-miterlimit="10"/>
<path d="M62.235 54.5163C64.7036 54.5163 66.7049 52.0991 66.7049 49.1173C66.7049 46.1356 64.7036 43.7184 62.235 43.7184C59.7664 43.7184 57.7651 46.1356 57.7651 49.1173C57.7651 52.0991 59.7664 54.5163 62.235 54.5163Z" stroke="black" stroke-width="2" stroke-miterlimit="10"/>
<path d="M93.9567 54.5163C96.4253 54.5163 98.4266 52.0991 98.4266 49.1173C98.4266 46.1356 96.4253 43.7184 93.9567 43.7184C91.488 43.7184 89.4868 46.1356 89.4868 49.1173C89.4868 52.0991 91.488 54.5163 93.9567 54.5163Z" stroke="black" stroke-width="2" stroke-miterlimit="10"/>
<path d="M64.1092 49.6398C65.0648 49.6398 65.8394 48.7041 65.8394 47.5499C65.8394 46.3956 65.0648 45.46 64.1092 45.46C63.1536 45.46 62.3789 46.3956 62.3789 47.5499C62.3789 48.7041 63.1536 49.6398 64.1092 49.6398Z" fill="black"/>
<path d="M95.8309 49.6398C96.7865 49.6398 97.5611 48.7041 97.5611 47.5499C97.5611 46.3956 96.7865 45.46 95.8309 45.46C94.8753 45.46 94.1006 46.3956 94.1006 47.5499C94.1006 48.7041 94.8753 49.6398 95.8309 49.6398Z" fill="black"/>
</svg>
