<svg width="150" height="89" viewBox="0 0 150 89" fill="none" xmlns="http://www.w3.org/2000/svg">
<path d="M135.916 89C135.916 89 150 82.0336 150 63.3985C150 52.4334 142.583 44.011 135.079 39.3714C132.818 30.4141 127.897 22.7817 121.26 17.9405C114.624 13.0993 106.74 11.3907 99.1242 13.1429C98.3629 13.3241 97.6131 13.54 96.8749 13.7769C94.3882 9.28318 90.9722 5.65265 86.9657 3.24531C82.9591 0.837963 78.5011 -0.262567 74.0339 0.0528479C69.5666 0.368263 65.2451 2.08867 61.4981 5.04346C57.751 7.99825 54.7085 12.0848 52.6722 16.8978C48.3931 14.8186 43.7325 14.1543 39.1702 14.9734C34.608 15.7924 30.3088 18.0651 26.7153 21.5576C23.1218 25.0502 20.3637 29.6363 18.725 34.8439C17.0863 40.0516 16.6262 45.6926 17.392 51.1864C13.6431 49.9882 8.45226 51.3815 9.3174 62.0888C1.13322 66.4219 -4.23639 78.5504 4.41496 89H135.916Z" fill="#BEDDF6"/>
<path d="M53.1509 57.3028C53.1509 57.3028 53.1509 51.0331 58.3417 51.0331C63.5325 51.0331 63.5325 57.3028 63.5325 57.3028" stroke="black" stroke-width="2" stroke-miterlimit="10"/>
<path d="M78.8282 61.4827L71.3188 61.4757" stroke="black" stroke-width="2" stroke-miterlimit="10"/>
<path d="M84.8726 57.3028C84.8726 57.3028 84.8726 51.0331 90.0634 51.0331C95.2542 51.0331 95.2542 57.3028 95.2542 57.3028" stroke="black" stroke-width="2" stroke-miterlimit="10"/>
</svg>
