<svg width="150" height="89" viewBox="0 0 150 89" fill="none" xmlns="http://www.w3.org/2000/svg">
<path d="M135.916 89C135.916 89 150 82.0336 150 63.3985C150 52.4334 142.583 44.011 135.079 39.3714C132.818 30.4141 127.897 22.7817 121.26 17.9405C114.624 13.0993 106.74 11.3907 99.1242 13.1429C98.3629 13.3241 97.6131 13.54 96.8749 13.7769C94.3882 9.28318 90.9722 5.65265 86.9657 3.24531C82.9591 0.837963 78.5011 -0.262567 74.0339 0.0528479C69.5666 0.368263 65.2451 2.08867 61.4981 5.04346C57.751 7.99825 54.7085 12.0848 52.6722 16.8978C48.3931 14.8186 43.7325 14.1543 39.1702 14.9734C34.608 15.7924 30.3088 18.0651 26.7153 21.5576C23.1218 25.0502 20.3637 29.6363 18.725 34.8439C17.0863 40.0516 16.6262 45.6926 17.392 51.1864C13.6431 49.9882 8.45226 51.3815 9.3174 62.0888C1.13322 66.4219 -4.23639 78.5504 4.41496 89H135.916Z" fill="#9ECBF2"/>
<path d="M81.7125 58.6953C81.7125 58.6953 81.7125 63.2304 77.9636 63.2304C74.2147 63.2304 74.2031 58.6953 74.2031 58.6953H81.7125Z" stroke="black" stroke-width="2" stroke-miterlimit="10"/>
<path d="M62.2355 54.5167C64.7041 54.5167 66.7054 52.0995 66.7054 49.1177C66.7054 46.1359 64.7041 43.7188 62.2355 43.7188C59.7669 43.7188 57.7656 46.1359 57.7656 49.1177C57.7656 52.0995 59.7669 54.5167 62.2355 54.5167Z" stroke="black" stroke-width="2" stroke-miterlimit="10"/>
<path d="M93.9542 54.5167C96.4229 54.5167 98.4241 52.0995 98.4241 49.1177C98.4241 46.1359 96.4229 43.7188 93.9542 43.7188C91.4856 43.7188 89.4844 46.1359 89.4844 49.1177C89.4844 52.0995 91.4856 54.5167 93.9542 54.5167Z" stroke="black" stroke-width="2" stroke-miterlimit="10"/>
<path d="M64.1131 49.6408C65.0687 49.6408 65.8433 48.7051 65.8433 47.5509C65.8433 46.3966 65.0687 45.4609 64.1131 45.4609C63.1575 45.4609 62.3828 46.3966 62.3828 47.5509C62.3828 48.7051 63.1575 49.6408 64.1131 49.6408Z" fill="black"/>
<path d="M95.8318 49.6408C96.7874 49.6408 97.5621 48.7051 97.5621 47.5509C97.5621 46.3966 96.7874 45.4609 95.8318 45.4609C94.8762 45.4609 94.1016 46.3966 94.1016 47.5509C94.1016 48.7051 94.8762 49.6408 95.8318 49.6408Z" fill="black"/>
</svg>
