<svg width="30" height="30" viewBox="0 0 30 30" fill="none" xmlns="http://www.w3.org/2000/svg">
<path d="M21.2492 6.51364C21.2492 5.95114 21.9242 5.67614 22.3117 6.07614L25.7992 9.56364C26.0492 9.81364 26.0492 10.2011 25.7992 10.4511L22.3117 13.9386C21.9242 14.3261 21.2492 14.0511 21.2492 13.4886V11.2511H17.4992C16.8117 11.2511 16.2492 10.6886 16.2492 10.0011C16.2492 9.31364 16.8117 8.75114 17.4992 8.75114H21.2492V6.51364ZM12.4992 8.75114C11.8117 8.75114 11.2492 9.31364 11.2492 10.0011C11.2492 10.6886 11.8117 11.2511 12.4992 11.2511C13.1867 11.2511 13.7492 10.6886 13.7492 10.0011C13.7492 9.31364 13.1867 8.75114 12.4992 8.75114ZM7.49922 8.75114C6.81172 8.75114 6.24922 9.31364 6.24922 10.0011C6.24922 10.6886 6.81172 11.2511 7.49922 11.2511C8.18672 11.2511 8.74922 10.6886 8.74922 10.0011C8.74922 9.31364 8.18672 8.75114 7.49922 8.75114ZM8.74922 21.2511H12.4992C13.1867 21.2511 13.7492 20.6886 13.7492 20.0011C13.7492 19.3136 13.1867 18.7511 12.4992 18.7511H8.74922V16.5136C8.74922 15.9511 8.07422 15.6761 7.68672 16.0761L4.19922 19.5636C3.94922 19.8136 3.94922 20.2011 4.19922 20.4511L7.68672 23.9386C8.07422 24.3261 8.74922 24.0511 8.74922 23.4886V21.2511ZM17.4992 21.2511C18.1867 21.2511 18.7492 20.6886 18.7492 20.0011C18.7492 19.3136 18.1867 18.7511 17.4992 18.7511C16.8117 18.7511 16.2492 19.3136 16.2492 20.0011C16.2492 20.6886 16.8117 21.2511 17.4992 21.2511ZM22.4992 21.2511C23.1867 21.2511 23.7492 20.6886 23.7492 20.0011C23.7492 19.3136 23.1867 18.7511 22.4992 18.7511C21.8117 18.7511 21.2492 19.3136 21.2492 20.0011C21.2492 20.6886 21.8117 21.2511 22.4992 21.2511Z" fill="#044B7F"/>
</svg>
