<svg width="30" height="30" viewBox="0 0 30 30" fill="none" xmlns="http://www.w3.org/2000/svg">
<path d="M9.25679 17.1654L8.46512 20.582C8.43781 20.7069 8.43875 20.8364 8.46786 20.9608C8.49698 21.0853 8.55353 21.2017 8.6334 21.3016C8.71327 21.4014 8.81443 21.4821 8.92949 21.5379C9.04455 21.5936 9.17061 21.6229 9.29846 21.6237C9.35803 21.6297 9.41805 21.6297 9.47762 21.6237L12.9151 20.832L19.5151 14.257L15.8318 10.582L9.25679 17.1654Z" fill="#044B7F"/>
<path d="M21.5924 10.9653L19.1341 8.50694C18.9725 8.34613 18.7538 8.25586 18.5258 8.25586C18.2978 8.25586 18.0791 8.34613 17.9174 8.50694L16.5508 9.8736L20.2299 13.5528L21.5966 12.1861C21.6766 12.1057 21.7399 12.0104 21.783 11.9055C21.8261 11.8006 21.8481 11.6882 21.8477 11.5748C21.8473 11.4614 21.8246 11.3492 21.7808 11.2446C21.737 11.14 21.673 11.0451 21.5924 10.9653Z" fill="#044B7F"/>
</svg>
