<svg version="1.2" xmlns="http://www.w3.org/2000/svg" viewBox="0 0 147 163">
	<title>Traveler</title>
	<style>
		.s0 { fill: #034a7e } 
	</style>
	<g id="Background">
		<path id="Path 0" fill-rule="evenodd" class="s0" d="m112.3 3.1c0.9-0.1 1.9 0.4 2 0.9 0.2 0.5 1.4 1 2.5 1 1.2 0 4.1 1.8 6.5 3.9 4 3.8 4.2 4.3 4.5 10.3 0.2 4.8-0.1 7.1-1.6 9.8-1.1 1.9-3 4.3-4.3 5.3-1.3 1-4.6 2.1-7.4 2.3-2.7 0.3-5.7 0.8-6.5 1-1.1 0.4-0.2 1.7 3.2 4.7 4.2 3.8 5 5.3 8.7 16.2 3.8 11.1 4.5 12.3 8.9 16 2.6 2.2 7.3 6.5 10.6 9.5 5.5 5.2 5.8 5.7 5.5 9.6-0.2 2.2-1.1 4.8-1.9 5.8-0.9 1-2.9 1.7-5.2 1.6-2.1 0-4.8-0.5-6-1.2-1.3-0.6-5.6-3.7-9.5-7-4-3.2-7.6-5.6-8-5.4-0.5 0.2-1.1 2.3-1.6 4.7-0.6 3.4-0.3 5.3 1.2 8.4 1.1 2.2 5.3 11.7 9.4 21 4.1 9.3 8.2 19.1 9.1 21.8 1.1 3.2 1.4 5.9 0.9 8.4-0.6 2.7-1.7 4.2-4.5 6-2.1 1.3-4.5 2.3-5.3 2.3-0.8 0-2.7-1.1-4.2-2.3-1.6-1.3-4.2-4.6-5.9-7.3-1.7-2.7-6-9.7-15.9-26.3l-3.6 5.7c-2 3.1-5.8 8.5-8.5 11.8-2.7 3.4-6.3 8.1-8 10.5-1.7 2.4-4.7 5.3-6.8 6.4-3.3 1.8-3.9 1.9-6.3 0.5-1.4-0.8-3.5-2.8-4.5-4.5-1-1.7-1.8-4.1-1.8-5.5 0-1.5 3.8-8.4 9.5-17 5.2-8 9.9-15.6 10.4-17 0.5-1.4 1.8-5.7 2.9-9.5 1.6-5.3 2.1-9.3 1.9-16.2-0.1-5.7-0.6-9.2-1.2-9-0.5 0.2-1.9 2.1-3 4.3-1.1 2.1-4 6-6.5 8.6-2.7 2.9-5.4 4.8-6.7 4.8-1.6 0-3.7 1.7-6.4 5.2-2.3 2.9-6.6 8.9-9.6 13.3-2.9 4.4-7.8 11.5-10.8 15.7-5.4 7.7-5.5 7.9-5.2 14.2 0.1 4.8-0.2 6.9-1.4 8.2-1 1.1-3.3 2.8-8.7 5.9l-3.8-3c-2.1-1.7-4.4-4.6-5.2-6.5-0.7-1.9-2.9-5.1-4.7-7-1.9-1.9-4.1-5.2-5-7.3-1.3-3.3-1.3-4.1 0-7.5 0.9-2 2.1-4.2 2.8-4.7 0.7-0.5 2.4-3 3.9-5.5 1.4-2.5 5.4-8.3 8.8-13 3.5-4.7 6.8-8.8 7.4-9.2 0.6-0.4 2.9-0.8 5.1-0.8 3 0 5.5 0.9 10.3 4 3.4 2.2 6.4 4 6.7 4 0.3 0 1.6-1.7 3-3.8 1.8-2.7 2.5-5.1 2.5-8.7 0-3.9 0.9-6.5 3.7-11.5 1.9-3.6 4.9-8.3 6.5-10.5 1.6-2.2 6.3-9.2 10.4-15.5 4.1-6.3 8.3-12.1 9.2-12.8 0.9-0.7 3.5-1.7 5.7-2.3 2.2-0.6 6-1.4 12.7-2.4l-3.2-4c-1.7-2.2-3.6-5.6-4.2-7.5-0.6-1.9-0.8-5.2-0.4-7.3 0.3-2.1 2-5.3 3.9-7.4 1.7-2 5-4.4 7.2-5.4 2.2-1 4.8-1.8 5.8-1.8zm-7.7 11.2c-0.8 1.2-1.8 3.5-2.1 5.2q-0.6 3 1.3 6c1.2 2 3 3.3 5.3 3.8 1.9 0.4 4.5 0.4 5.9-0.1 1.4-0.5 3.3-1.7 4.3-2.6q1.7-1.6 1.7-6.1 0-4.5-1.7-6.1c-1-0.9-2.8-2.1-4-2.5-1.3-0.5-2.9-0.8-3.5-0.8-0.7 0.1-2.3 0.4-3.5 0.6-1.2 0.2-2.8 1.4-3.7 2.6zm-20.6 39.9c-2.5 3.6-5.3 7.9-6.3 9.5-0.9 1.5-4.4 6.8-7.7 11.8-3.3 5-6.5 10-7 11.2-0.6 1.3-0.8 2.8-0.5 3.3 0.3 0.5 1.9-0.2 3.6-1.8 1.7-1.5 5.2-5.8 7.7-9.5 2.6-3.8 5.4-8 6.2-9.4 0.8-1.4 3.1-4.3 5-6.5 1.9-2.1 4.1-3.8 4.8-3.8 0.6 0 1.5 1.2 1.8 2.7 0.4 1.6 0.2 6.2-0.4 10.3-0.6 4.1-1.4 10.7-1.7 14.5-0.6 6.7-0.4 7.3 3 14 2 3.8 5.1 9.7 6.9 13 1.7 3.3 5.4 9.4 8.1 13.5 2.6 4.1 6 10 7.5 13 1.5 3 4.2 7 5.9 8.7 1.7 1.8 3.7 3.2 4.4 3 0.6-0.2 1.3-1.1 1.5-2 0.1-0.9-4.5-12.6-10.4-25.9l-10.5-24.3c0.6-12.4 1.5-19.6 2.3-24 0.9-4.4 1.8-11.3 2.2-15.3l0.6-7.2c-7.1-7.5-8-7.9-12.5-7.9-2.7-0.1-6.1 0.5-7.5 1.2-1.3 0.7-4.5 4.3-7 7.9zm32.3 23.3c0.3 1.1 4.9 5.5 10.1 9.7 5.3 4.3 10 7.8 10.6 7.8 0.6 0 1-0.8 1-1.8 0-0.9-1.9-3.3-4.2-5.2-2.4-1.9-7-6-10.4-9.3-4.4-4.2-6.3-5.5-6.8-4.5-0.5 0.7-0.6 2.2-0.3 3.3zm-103.1 50.9c-1.2 2.3-2.2 4.9-2.2 5.9 0 0.9 1.2 2.6 2.8 3.7 1.5 1.2 3.7 2.1 5 2 1.2 0 3.6-0.7 5.2-1.5 1.9-1 6-5.9 11.5-14 4.7-6.9 8.7-13.1 9-13.7 0.3-0.8-1.9-2.8-5.7-5-3.5-2.1-6.6-3.8-7-3.8-0.4 0-4.2 5-8.5 11.2-4.3 6.1-8.8 13-10.1 15.2zm71.8-13.9c0 0.8-1.6 4.5-3.6 8.3-1.9 3.7-3.8 6.9-4.2 7.2-0.4 0.3-1.7 2-2.9 3.8-1.3 1.7-2.3 3.5-2.3 4-0.1 0.4-1.6 2.8-3.5 5.5-1.9 2.6-3.4 5.5-3.2 6.4 0.1 0.9 0.8 1.8 1.5 2 0.6 0.2 2.8-1.4 4.7-3.4 1.9-2.1 6.2-7.6 9.6-12.3 3.5-4.7 7.5-10.9 9.1-13.7 1.5-2.9 2.8-6 2.8-6.8 0-0.8-0.3-1.5-0.7-1.5-0.5 0.1-1.5-1.3-2.3-3-0.8-1.7-1.8-3.1-2.1-3-0.4 0-1.2 1.1-1.8 2.5-0.6 1.4-1.1 3.2-1.1 4zm-63.6 35.8c0.4 1 1.4 1.6 2.9 1.5 1.4-0.2 2.2-1 2.2-2.2 0-1-1-2.2-2.3-2.7-1.6-0.6-2.5-0.5-2.9 0.4-0.3 0.6-0.2 2 0.1 3z"/>
	</g>
</svg>