<svg width="31" height="42" viewBox="0 0 31 42" fill="none" xmlns="http://www.w3.org/2000/svg">
<path d="M11.9478 40.3379H19.6747H11.9478ZM2.28907 15.2253C2.28907 11.639 3.71372 8.19957 6.24962 5.66367C8.78551 3.12778 12.2249 1.70312 15.8112 1.70312C19.3975 1.70312 22.8369 3.12778 25.3728 5.66367C27.9087 8.19957 29.3334 11.639 29.3334 15.2253C29.3347 17.4025 28.8081 19.5476 27.7988 21.4767C26.7895 23.4058 25.3275 25.0615 23.5382 26.3019L22.4912 31.2587C22.3526 32.1724 21.8911 33.0061 21.1904 33.6086C20.4897 34.2111 19.5962 34.5425 18.6721 34.5427H12.9503C12.0262 34.5425 11.1328 34.2111 10.4321 33.6086C9.73141 33.0061 9.2699 32.1724 9.13128 31.2587L8.08428 26.3231C6.29434 25.0784 4.83234 23.4188 3.82316 21.4862C2.81398 19.5536 2.28763 17.4055 2.28907 15.2253V15.2253Z" stroke="black" stroke-width="3.09078" stroke-linecap="round" stroke-linejoin="round"/>
</svg>
