<svg width="81" height="15" viewBox="0 0 81 15" fill="none" xmlns="http://www.w3.org/2000/svg">
<path d="M4.92 0.584531C5.736 0.584531 6.45867 0.755198 7.088 1.09653C7.71733 1.43253 8.224 1.8832 8.608 2.44853C8.992 3.01386 9.21867 3.6352 9.288 4.31253H7.712C7.62667 3.8592 7.464 3.44853 7.224 3.08053C6.984 2.71253 6.66933 2.4192 6.28 2.20053C5.89067 1.98186 5.424 1.87253 4.88 1.87253C4.18133 1.87253 3.58933 2.03786 3.104 2.36853C2.624 2.69386 2.25867 3.19786 2.008 3.88053C1.76267 4.5632 1.64 5.43786 1.64 6.50453C1.64 8.1152 1.91467 9.2992 2.464 10.0565C3.01867 10.8085 3.824 11.1845 4.88 11.1845C5.424 11.1845 5.89067 11.0699 6.28 10.8405C6.66933 10.6112 6.984 10.3045 7.224 9.92053C7.464 9.53653 7.62667 9.12053 7.712 8.67253H9.288C9.22933 9.1632 9.096 9.63787 8.888 10.0965C8.68533 10.5499 8.40533 10.9552 8.048 11.3125C7.69067 11.6699 7.25067 11.9525 6.728 12.1605C6.21067 12.3685 5.608 12.4725 4.92 12.4725C3.88 12.4725 2.992 12.2352 2.256 11.7605C1.52533 11.2859 0.965333 10.6032 0.576 9.71253C0.192 8.82186 0 7.7472 0 6.48853C0 5.2352 0.192 4.16853 0.576 3.28853C0.96 2.40853 1.51733 1.7392 2.248 1.28053C2.984 0.816531 3.87467 0.584531 4.92 0.584531Z" fill="black"/>
<path d="M22.1271 4.37653V5.52053L15.2231 5.52853V4.38453L22.1271 4.37653ZM22.1271 7.92053V9.07253L15.2231 9.08053V7.93653L22.1271 7.92053Z" fill="black"/>
<path d="M35.2336 12.3125H27.6256V11.3365L31.0576 6.54453L27.8416 1.81653V0.744531H34.9456V1.99253H29.8816L32.9216 6.40853L29.6096 11.0085H35.2336V12.3125Z" fill="black"/>
<path d="M40.2708 0.144531C39.7268 1.1792 39.2788 2.31253 38.9268 3.54453C38.5747 4.7712 38.3988 6.01653 38.3988 7.28053C38.3988 8.48053 38.5481 9.6512 38.8468 10.7925C39.1454 11.9285 39.5774 13.0939 40.1428 14.2885H39.1348C38.6921 13.5419 38.3081 12.8032 37.9827 12.0725C37.6628 11.3419 37.4121 10.5845 37.2308 9.80053C37.0548 9.01653 36.9668 8.1712 36.9668 7.26453C36.9668 5.94186 37.1801 4.67253 37.6068 3.45653C38.0334 2.2352 38.5828 1.1312 39.2548 0.144531H40.2708Z" fill="black"/>
<path d="M45.1065 12.4725C44.0345 12.4725 43.1838 12.1045 42.5545 11.3685C41.9252 10.6325 41.6105 9.55787 41.6105 8.14453C41.6105 7.28586 41.7358 6.53653 41.9865 5.89653C42.2425 5.25653 42.6212 4.76053 43.1225 4.40853C43.6238 4.05653 44.2478 3.88053 44.9945 3.88053C45.3892 3.88053 45.7385 3.9312 46.0425 4.03253C46.3518 4.13386 46.6185 4.26187 46.8425 4.41653C47.0665 4.5712 47.2478 4.7312 47.3865 4.89653C47.5305 5.06186 47.6372 5.21386 47.7065 5.35253V0.424531H49.1945V12.3125H48.0665L47.9065 10.6165C47.8532 10.7765 47.7678 10.9632 47.6505 11.1765C47.5332 11.3845 47.3678 11.5899 47.1545 11.7925C46.9412 11.9899 46.6665 12.1525 46.3305 12.2805C45.9998 12.4085 45.5918 12.4725 45.1065 12.4725ZM45.3705 11.3365C46.2078 11.3365 46.8052 11.0832 47.1625 10.5765C47.5252 10.0645 47.7065 9.22987 47.7065 8.07253C47.7012 7.4272 47.6185 6.87786 47.4585 6.42453C47.3038 5.9712 47.0585 5.6272 46.7225 5.39253C46.3918 5.15253 45.9518 5.03253 45.4025 5.03253C44.7198 5.03253 44.1652 5.2752 43.7385 5.76053C43.3118 6.24586 43.0985 7.01653 43.0985 8.07253C43.0985 9.1072 43.2905 9.90986 43.6745 10.4805C44.0638 11.0512 44.6292 11.3365 45.3705 11.3365Z" fill="black"/>
<path d="M63.0216 12.3125H61.4136L59.0056 9.07253L56.6136 12.3125H54.9896L58.1816 8.01653L55.2456 4.04053H56.8616L59.0056 6.94453L61.1576 4.04053H62.7736L59.8296 8.01653L63.0216 12.3125Z" fill="black"/>
<path d="M69.6816 8.52053C69.6816 9.0432 69.767 9.51786 69.9376 9.94453C70.1136 10.3659 70.3776 10.7019 70.7296 10.9525C71.087 11.2032 71.5323 11.3285 72.0656 11.3285C72.5936 11.3285 73.047 11.2059 73.4256 10.9605C73.8096 10.7152 74.055 10.3605 74.1616 9.89653H75.5616C75.4603 10.4565 75.2363 10.9285 74.8896 11.3125C74.543 11.6965 74.1243 11.9872 73.6336 12.1845C73.143 12.3765 72.631 12.4725 72.0976 12.4725C71.3243 12.4725 70.6443 12.3045 70.0576 11.9685C69.471 11.6325 69.0123 11.1499 68.6816 10.5205C68.351 9.8912 68.1856 9.13653 68.1856 8.25653C68.1856 7.3872 68.335 6.62453 68.6336 5.96853C68.9323 5.31253 69.3643 4.80053 69.9296 4.43253C70.5003 4.06453 71.1856 3.88053 71.9856 3.88053C72.7643 3.88053 73.423 4.04853 73.9616 4.38453C74.5003 4.72053 74.9083 5.1952 75.1856 5.80853C75.4683 6.41653 75.6096 7.1392 75.6096 7.97653V8.52053H69.6816ZM69.6896 7.52053H74.1856C74.1856 7.04587 74.1056 6.6192 73.9456 6.24053C73.7856 5.85653 73.5403 5.5552 73.2096 5.33653C72.8843 5.11253 72.4736 5.00053 71.9776 5.00053C71.4603 5.00053 71.031 5.12586 70.6896 5.37653C70.3536 5.62186 70.1003 5.9392 69.9296 6.32853C69.7643 6.71253 69.6843 7.10986 69.6896 7.52053Z" fill="black"/>
<path d="M76.773 0.144531C77.317 1.1792 77.765 2.31253 78.117 3.54453C78.469 4.7712 78.645 6.01653 78.645 7.28053C78.645 8.48053 78.4957 9.6512 78.197 10.7925C77.8983 11.9285 77.4663 13.0939 76.901 14.2885H77.909C78.3517 13.5419 78.733 12.8032 79.053 12.0725C79.3783 11.3419 79.629 10.5845 79.805 9.80053C79.9863 9.01653 80.077 8.1712 80.077 7.26453C80.077 5.94186 79.8637 4.67253 79.437 3.45653C79.0103 2.2352 78.461 1.1312 77.789 0.144531H76.773Z" fill="black"/>
</svg>
