<svg width="70" height="20" viewBox="0 0 70 20" fill="none" xmlns="http://www.w3.org/2000/svg">
<path d="M10.4042 16.0001H0.78125V14.7656L5.12222 8.70443L1.05445 2.72421V1.36829H10.0399V2.94682H3.63475L7.47991 8.53241L3.29071 14.3507H10.4042V16.0001ZM21.6925 0.609375C21.0044 1.91808 20.4378 3.35158 19.9926 4.90987C19.5473 6.46142 19.3247 8.03658 19.3247 9.63536C19.3247 11.1532 19.5136 12.6339 19.8914 14.0775C20.2691 15.5144 20.8156 16.9884 21.5306 18.4994H20.2556C19.6957 17.555 19.21 16.6207 18.7985 15.6965C18.3938 14.7724 18.0767 13.8144 17.8474 12.8228C17.6248 11.8311 17.5134 10.7619 17.5134 9.61512C17.5134 7.94214 17.7833 6.33662 18.323 4.79857C18.8626 3.25376 19.5574 1.85736 20.4074 0.609375H21.6925ZM32.9595 19.2584H31.0774V14.1079C30.9627 14.3305 30.8143 14.5632 30.6322 14.8061C30.4568 15.0489 30.2342 15.2783 29.9643 15.4942C29.7012 15.7033 29.3876 15.8719 29.0233 16.0001C28.6658 16.135 28.2509 16.2025 27.7787 16.2025C26.9422 16.2025 26.19 16.0102 25.5222 15.6257C24.8611 15.2344 24.3383 14.6273 23.9538 13.8043C23.576 12.9813 23.3871 11.9222 23.3871 10.627C23.3871 9.51393 23.549 8.56276 23.8728 7.7735C24.2034 6.98423 24.6857 6.38047 25.3198 5.96223C25.9539 5.54398 26.7263 5.33486 27.637 5.33486C28.116 5.33486 28.541 5.39895 28.912 5.52712C29.283 5.65529 29.6102 5.82057 29.8935 6.02294C30.1768 6.22532 30.4129 6.44456 30.6018 6.68066C30.7974 6.91677 30.9526 7.14276 31.0673 7.35862L31.0976 5.53724H32.9595V19.2584ZM28.1328 14.7454C28.7872 14.7454 29.3336 14.5632 29.7721 14.199C30.2106 13.8347 30.5411 13.3456 30.7637 12.7317C30.9863 12.1178 31.0976 11.4365 31.0976 10.6877C31.0976 9.52742 30.848 8.58975 30.3488 7.87468C29.8497 7.15288 29.111 6.79197 28.1328 6.79197C27.2761 6.79197 26.5712 7.1124 26.018 7.75326C25.4716 8.39412 25.1984 9.37227 25.1984 10.6877C25.1984 11.9492 25.448 12.9408 25.9472 13.6627C26.4531 14.3845 27.1817 14.7454 28.1328 14.7454ZM50.4492 16.0001H48.4154L45.3696 11.902L42.3441 16.0001H40.2899L44.3274 10.5663L40.6137 5.53724H42.6577L45.3696 9.21037L48.0916 5.53724H50.1356L46.4118 10.5663L50.4492 16.0001ZM63.7038 5.53724V6.90328H61.1639V16.0001H59.2818V6.90328H57.0759V5.53724H59.2818V3.91823C59.2818 3.08849 59.4943 2.45775 59.9193 2.02601C60.3443 1.58753 60.9784 1.36829 61.8217 1.36829H63.7948L63.805 2.69385H62.2365C61.8116 2.69385 61.5215 2.80853 61.3663 3.03789C61.2112 3.26725 61.1336 3.61466 61.1336 4.08013V5.53724H63.7038ZM65.6489 0.609375C66.3371 1.91808 66.9037 3.35158 67.3489 4.90987C67.7941 6.46142 68.0168 8.03658 68.0168 9.63536C68.0168 11.1532 67.8279 12.6339 67.4501 14.0775C67.0723 15.5144 66.526 16.9884 65.8109 18.4994H67.0858C67.6457 17.555 68.1282 16.6207 68.5329 15.6965C68.9444 14.7724 69.2614 13.8144 69.484 12.8228C69.7133 11.8311 69.828 10.7619 69.828 9.61512C69.828 7.94214 69.5583 6.33662 69.0185 4.79857C68.4788 3.25376 67.784 1.85736 66.9341 0.609375H65.6489Z" fill="black"/>
</svg>
