<svg version="1.2" xmlns="http://www.w3.org/2000/svg" viewBox="0 0 127 18" width="127" height="18">
	<title>total-emission-formula-1-svg</title>
	<style>
		.s0 { fill: #000000 } 
	</style>
	<path id="Layer" fill-rule="evenodd" class="s0" d="m4.2 14.8q-1.9 0-3.1-1.3-1.1-1.4-1.1-3.9 0-1.5 0.5-2.7 0.4-1.1 1.3-1.8 0.9-0.6 2.3-0.6 0.7 0 1.2 0.2 0.6 0.1 1 0.4 0.4 0.3 0.6 0.6 0.3 0.3 0.4 0.5v-5.9h1.8v14.3h-1.4l-0.2-2q-0.1 0.3-0.3 0.6-0.2 0.4-0.6 0.8-0.3 0.3-0.9 0.6-0.6 0.2-1.5 0.2zm0.3-1.4q1.5 0 2.2-0.9 0.6-0.9 0.6-3 0-1.1-0.3-2-0.3-0.8-0.9-1.2-0.6-0.4-1.6-0.4-1.2 0-2 0.8-0.7 0.9-0.7 2.8 0 1.9 0.7 2.9 0.7 1 2 1z"/>
	<path id="Layer" class="s0" d="m24.9 5.1v1.4h-8.3v-1.4zm0 4.2v1.4h-8.2v-1.3z"/>
	<path id="Layer" class="s0" d="m40.6 14.6h-9.1v-1.2l4.1-5.7-3.9-5.7v-1.3h8.6v1.5h-6.1l3.6 5.3-3.9 5.5h6.7z"/>
	<path id="Layer" class="s0" d="m46.6 0q-0.9 1.9-1.6 4.1-0.6 2.2-0.6 4.5 0 2.1 0.5 4.2 0.6 2 1.6 4.2h-1.2q-0.8-1.4-1.4-2.7-0.6-1.3-0.9-2.7-0.3-1.4-0.3-3.1 0-2.3 0.7-4.5 0.8-2.2 2-4z"/>
	<path id="Layer" class="s0" d="m54 6h-2.2v6.1q0 0.6 0.1 0.8 0.1 0.3 0.4 0.3 0.2 0.1 0.7 0.1h1.1v1.2q-0.2 0.1-0.6 0.1-0.3 0-0.9 0-1 0-1.6-0.2-0.5-0.3-0.8-0.9-0.2-0.5-0.2-1.3v-6.2h-1.6v-1.3h1.7l0.4-2.9h1.3v2.9h2.2z"/>
	<path id="Layer" class="s0" d="m70.2 14.6h-1.9l-2.9-3.9-2.9 3.9h-1.9l3.8-5.2-3.5-4.7h1.9l2.6 3.5 2.6-3.5h1.9l-3.5 4.7z"/>
	<path id="Layer" class="s0" d="m76.9 14.6v-1.1-0.5q0-1.1 0.4-1.9 0.4-0.8 1-1.3 0.7-0.6 1.5-1.1 0.8-0.5 1.5-0.9 0.8-0.4 1.5-0.9 0.6-0.4 1-1 0.4-0.6 0.4-1.4 0-1.1-0.7-1.7-0.8-0.7-2-0.7-1.4 0-2.2 0.8-0.8 0.7-0.9 2h-1.8q0-1.2 0.6-2.2 0.5-1 1.6-1.6 1.1-0.6 2.7-0.6 1.4 0 2.4 0.5 1.1 0.5 1.6 1.4 0.6 0.9 0.6 2.1 0 1-0.4 1.8-0.4 0.8-1 1.4-0.7 0.5-1.5 0.9-0.7 0.5-1.5 0.9-0.8 0.4-1.4 0.9-0.7 0.4-1 1-0.4 0.6-0.4 1.3v0.3h7.3v1.6z"/>
	<path id="Layer" class="s0" d="m102.2 14.6h-1.9l-2.9-3.9-2.9 3.9h-1.9l3.8-5.2-3.5-4.7h1.9l2.6 3.5 2.6-3.5h1.9l-3.5 4.7z"/>
	<path id="Layer" class="s0" d="m122.1 4.7l-3 9.9h-1.7l-2.3-7.3-2.2 7.3h-1.7l-3-9.9h1.6l2.3 7.6h0.1l2.3-7.6h1.3l2.3 7.6h0.2l2.1-7.6z"/>
	<path id="Layer" class="s0" d="m123.9 0q1.2 1.8 2 4 0.7 2.2 0.7 4.5 0 1.7-0.3 3.1-0.3 1.4-0.9 2.7-0.6 1.3-1.4 2.7h-1.2q1.1-2.2 1.6-4.2 0.5-2.1 0.5-4.2 0-2.3-0.6-4.5-0.6-2.2-1.6-4.1z"/>
</svg>