<svg version="1.2" xmlns="http://www.w3.org/2000/svg" viewBox="0 0 97 18" width="97" height="18">
	<title>formula-2-svg</title>
	<style>
		.s0 { fill: #000000 } 
	</style>
	<path id="Layer" class="s0" d="m5.9 0.7q1.5 0 2.6 0.6 1.1 0.6 1.8 1.6 0.7 1.1 0.8 2.3h-1.9q-0.1-0.8-0.5-1.5-0.5-0.7-1.2-1.1-0.7-0.4-1.7-0.4-1.2 0-2.1 0.6-0.8 0.6-1.3 1.9-0.4 1.2-0.4 3.1 0 2.9 1 4.3 0.9 1.3 2.8 1.3 1 0 1.7-0.4 0.7-0.4 1.2-1.1 0.4-0.7 0.5-1.5h1.9q-0.1 0.9-0.5 1.7-0.3 0.8-1 1.5-0.6 0.6-1.5 1-1 0.4-2.2 0.4-1.9 0-3.2-0.9-1.3-0.8-2-2.4-0.7-1.6-0.7-3.9 0-2.3 0.7-3.9 0.7-1.5 2-2.4 1.3-0.8 3.2-0.8z"/>
	<path id="Layer" class="s0" d="m26.5 5.3v1.3h-8.3v-1.3zm0 4.2v1.4h-8.2v-1.4z"/>
	<path id="Layer" class="s0" d="m42.2 14.8h-9.1v-1.2l4.1-5.7-3.9-5.7v-1.3h8.5v1.5h-6l3.6 5.3-3.9 5.5h6.7z"/>
	<path id="Layer" class="s0" d="m48.2 0.2q-1 1.8-1.6 4.1-0.6 2.2-0.6 4.4 0 2.2 0.5 4.3 0.6 2 1.6 4.1h-1.2q-0.8-1.3-1.4-2.6-0.6-1.3-0.9-2.7-0.3-1.5-0.3-3.1 0-2.4 0.7-4.6 0.8-2.2 2-3.9z"/>
	<path id="Layer" fill-rule="evenodd" class="s0" d="m54 15q-1.9 0-3-1.4-1.2-1.3-1.2-3.8 0-1.6 0.5-2.7 0.4-1.2 1.3-1.8 0.9-0.6 2.3-0.6 0.7 0 1.2 0.1 0.6 0.2 1 0.5 0.4 0.3 0.6 0.6 0.3 0.3 0.4 0.5v-5.9h1.8v14.3h-1.3l-0.2-2.1q-0.1 0.3-0.3 0.7-0.2 0.4-0.6 0.8-0.4 0.3-1 0.5-0.6 0.3-1.5 0.3zm0.3-1.4q1.5 0 2.2-0.9 0.6-0.9 0.6-3 0-1.2-0.3-2-0.2-0.8-0.8-1.2-0.6-0.5-1.6-0.5-1.3 0-2 0.9-0.8 0.9-0.8 2.8 0 1.8 0.7 2.9 0.7 1 2 1z"/>
	<path id="Layer" class="s0" d="m75.5 14.8h-2l-2.8-3.9-2.9 3.9h-1.9l3.8-5.2-3.5-4.8h1.9l2.6 3.5 2.5-3.5h2l-3.6 4.8z"/>
	<path id="Layer" fill-rule="evenodd" class="s0" d="m83.4 10.2q0 1 0.4 1.7 0.3 0.8 0.9 1.2 0.6 0.5 1.6 0.5 0.9 0 1.6-0.4 0.7-0.5 0.9-1.3h1.7q-0.2 1-0.8 1.7-0.6 0.7-1.5 1-0.9 0.4-1.9 0.4-1.3 0-2.4-0.6-1.1-0.6-1.7-1.8-0.5-1.1-0.5-2.7 0-1.6 0.5-2.7 0.5-1.2 1.5-1.9 1.1-0.6 2.5-0.6 1.4 0 2.4 0.6 0.9 0.6 1.4 1.7 0.5 1.1 0.5 2.6v0.6zm0.1-1.2h5.3q0-0.8-0.2-1.5-0.3-0.7-0.9-1.1-0.6-0.4-1.5-0.4-0.9 0-1.5 0.5-0.7 0.4-1 1.1-0.3 0.7-0.2 1.4z"/>
	<path id="Layer" class="s0" d="m93.2 0.2q1.2 1.7 1.9 3.9 0.8 2.2 0.8 4.6 0 1.6-0.3 3.1-0.3 1.4-0.9 2.7-0.6 1.3-1.4 2.6h-1.2q1-2.1 1.5-4.1 0.6-2.1 0.6-4.3 0-2.2-0.7-4.4-0.6-2.3-1.6-4.1z"/>
</svg>