<svg width="99" height="18" viewBox="0 0 99 18" fill="none" xmlns="http://www.w3.org/2000/svg">
<path d="M6.78948 0.556533C7.8216 0.556533 8.73566 0.772403 9.53168 1.20414C10.3277 1.62913 10.9685 2.19915 11.4543 2.91421C11.94 3.62928 12.2267 4.41517 12.3144 5.2719H10.3209C10.213 4.6985 10.0073 4.17907 9.7037 3.7136C9.40013 3.24814 9.00213 2.87711 8.50968 2.60053C8.01723 2.32395 7.42697 2.18566 6.73889 2.18566C5.85518 2.18566 5.10638 2.39478 4.49251 2.81303C3.88538 3.22453 3.42329 3.86201 3.10623 4.72548C2.79592 5.58895 2.64077 6.69528 2.64077 8.04445C2.64077 10.0817 2.98818 11.5793 3.683 12.5372C4.38458 13.4884 5.4032 13.9639 6.73889 13.9639C7.42697 13.9639 8.01723 13.8189 8.50968 13.5288C9.00213 13.2388 9.40013 12.8509 9.7037 12.3652C10.0073 11.8795 10.213 11.3533 10.3209 10.7866H12.3144C12.2401 11.4073 12.0715 12.0076 11.8084 12.5878C11.5521 13.1612 11.1979 13.6739 10.7459 14.1258C10.294 14.5778 9.73743 14.9354 9.07633 15.1984C8.42198 15.4615 7.6597 15.5931 6.78948 15.5931C5.47403 15.5931 4.35085 15.2929 3.41992 14.6925C2.49573 14.0921 1.78741 13.2286 1.29496 12.1021C0.809258 10.9755 0.566406 9.61621 0.566406 8.02421C0.566406 6.43893 0.809258 5.08976 1.29496 3.97669C1.78067 2.86362 2.48561 2.01701 3.4098 1.43687C4.34073 0.849983 5.46729 0.556533 6.78948 0.556533ZM28.5539 5.35285V6.79984L19.8214 6.80996V5.36297L28.5539 5.35285ZM28.5539 9.83551V11.2926L19.8214 11.3027V9.85571L28.5539 9.83551ZM45.1317 15.3907H35.5087V14.1562L39.8497 8.09505L35.7819 2.11483V0.758913H44.7674V2.33744H38.3622L42.2074 7.92303L38.0182 13.7413H45.1317V15.3907ZM51.5029 0C50.8148 1.3087 50.2482 2.7422 49.803 4.30049C49.3577 5.85204 49.1351 7.4272 49.1351 9.02598C49.1351 10.5438 49.324 12.0245 49.7018 13.4681C50.0795 14.905 50.626 16.379 51.341 17.89H50.0661C49.5061 16.9456 49.0204 16.0113 48.6089 15.0871C48.2042 14.163 47.8871 13.205 47.6578 12.2134C47.4352 11.2217 47.3239 10.1525 47.3239 9.00574C47.3239 7.33276 47.5937 5.72724 48.1334 4.18919C48.673 2.64438 49.3679 1.24798 50.2178 0H51.5029ZM57.6194 15.5931C56.2635 15.5931 55.1875 15.1276 54.3915 14.1967C53.5955 13.2657 53.1975 11.9065 53.1975 10.1188C53.1975 9.03272 53.356 8.08493 53.6731 7.27542C53.9969 6.46592 54.4758 5.83855 55.11 5.39332C55.7441 4.9481 56.5333 4.72548 57.4778 4.72548C57.977 4.72548 58.4188 4.78957 58.8033 4.91774C59.1946 5.04591 59.5319 5.20781 59.8152 5.40344C60.0985 5.59907 60.3279 5.80145 60.5033 6.01057C60.6854 6.21969 60.8203 6.41195 60.908 6.58734V0.354158H62.7901V15.3907H61.3634L61.161 13.2455C61.0936 13.4479 60.9856 13.684 60.8372 13.9538C60.6888 14.2169 60.4797 14.4766 60.2098 14.733C59.94 14.9826 59.5926 15.1883 59.1676 15.3502C58.7494 15.5121 58.2333 15.5931 57.6194 15.5931ZM57.9533 14.1562C59.0124 14.1562 59.768 13.8358 60.22 13.1949C60.6787 12.5473 60.908 11.4916 60.908 10.0277C60.9013 9.21149 60.7967 8.51666 60.5944 7.94326C60.3987 7.36986 60.0884 6.93476 59.6634 6.63794C59.2452 6.33437 58.6886 6.18259 57.9938 6.18259C57.1304 6.18259 56.4288 6.48953 55.8891 7.1034C55.3494 7.71728 55.0796 8.69206 55.0796 10.0277C55.0796 11.3364 55.3225 12.3517 55.8082 13.0735C56.3006 13.7953 57.0157 14.1562 57.9533 14.1562ZM80.2794 15.3907H78.2455L75.1998 11.2926L72.1742 15.3907H70.1201L74.1575 9.95691L70.4439 4.92786H72.4879L75.1998 8.60099L77.9217 4.92786H79.9657L76.242 9.95691L80.2794 15.3907ZM88.7033 10.5944C88.7033 11.2555 88.8112 11.8559 89.0271 12.3955C89.2497 12.9285 89.5837 13.3534 90.0289 13.6705C90.4809 13.9876 91.0441 14.1461 91.7187 14.1461C92.3866 14.1461 92.96 13.9909 93.4389 13.6806C93.9246 13.3703 94.2349 12.9217 94.3698 12.3348H96.1406C96.0125 13.0431 95.7291 13.6401 95.2907 14.1258C94.8522 14.6116 94.3226 14.9792 93.702 15.2288C93.0814 15.4717 92.4338 15.5931 91.7592 15.5931C90.781 15.5931 89.9209 15.3806 89.1789 14.9556C88.4369 14.5306 87.8567 13.9201 87.4385 13.1241C87.0202 12.3281 86.8111 11.3735 86.8111 10.2605C86.8111 9.16089 87 8.19623 87.3778 7.36649C87.7555 6.53675 88.3019 5.88915 89.017 5.42368C89.7388 4.95821 90.6057 4.72548 91.6175 4.72548C92.6024 4.72548 93.4355 4.93798 94.1169 5.36297C94.7982 5.78796 95.3143 6.38834 95.6651 7.16412C96.0226 7.93315 96.2014 8.84721 96.2014 9.90631V10.5944H88.7033ZM88.7134 9.32954H94.4002C94.4002 8.72916 94.299 8.18949 94.0966 7.71053C93.8943 7.22483 93.584 6.84369 93.1657 6.56711C92.7542 6.28378 92.2348 6.14212 91.6074 6.14212C90.9531 6.14212 90.41 6.30064 89.9783 6.6177C89.5533 6.92801 89.2329 7.32939 89.017 7.82184C88.8079 8.30754 88.7067 8.81011 88.7134 9.32954ZM97.6728 0C98.3609 1.3087 98.9276 2.7422 99.3728 4.30049C99.818 5.85204 100.04 7.4272 100.04 9.02598C100.04 10.5438 99.8518 12.0245 99.474 13.4681C99.0962 14.905 98.5498 16.379 97.8347 17.89H99.1097C99.6696 16.9456 100.151 16.0113 100.556 15.0871C100.968 14.163 101.285 13.205 101.507 12.2134C101.738 11.2217 101.851 10.1525 101.851 9.00574C101.851 7.33276 101.582 5.72724 101.042 4.18919C100.502 2.64438 99.8079 1.24798 98.9579 0H97.6728Z" fill="black"/>
</svg>
